<svg xmlns="http://www.w3.org/2000/svg" viewBox="0 0 2937.15 2556.32"><defs><style>.cls-1{fill:#eaf0fa;}.cls-2{fill:#fff;}.cls-3{fill:#e3ebf8;}.cls-4{fill:#e8f0f9;}.cls-5{fill:#11823b;}.cls-6{fill:#e3ebf6;}.cls-7{fill:#ebf3f8;}.cls-8{fill:#70d09e;}.cls-9{fill:#ffdbb8;}.cls-10{fill:#f9c498;}.cls-11{fill:#fedbb8;}.cls-12{fill:#fafcfb;}.cls-13{fill:#f5f8f7;}.cls-14{fill:#fbfdfc;}.cls-15{fill:#f8fbfd;}.cls-16{fill:#fafcfd;}.cls-17{fill:#eceade;}</style></defs><title>new</title><g id="Layer_2" data-name="Layer 2"><g id="Layer_1-2" data-name="Layer 1"><ellipse class="cls-1" cx="497.36" cy="2420.49" rx="497.36" ry="135.83"/><ellipse class="cls-2" cx="1006.47" cy="296.75" rx="117.96" ry="96.51"/><ellipse class="cls-2" cx="2084.94" cy="853.65" rx="117.96" ry="96.51"/><ellipse class="cls-2" cx="1717.45" cy="1384.41" rx="353.7" ry="338.55"/><path class="cls-3" d="M2397.4,1936.67c0,.79-.06,1.58-.05,2.37l-2.36,2.42c0,.79,0,1.57,0,2.36l-2.38,2.45h0l-2.37,2.4q-1.21,2.38-2.45,4.75l-2.41,2.43h0l-2.41,2.41h0l-2.44,2.41c-.79,0-1.57,0-2.35.06l-2.38,2.36h0l-2.42,2.38h0c-2,.06-3.76.49-4.79,2.41h0c-2,.05-3.77.48-4.81,2.4h0c-2,0-3.77.47-4.84,2.38-.78,0-1.57,0-2.35,0-2.65.07-5.48-.4-7.23,2.38l-4.78,0H1151.76l-4.77,0c-1.76-2.78-4.58-2.31-7.23-2.38l-1.18,0h-1.18c-1.06-1.91-2.85-2.35-4.84-2.39h0c-1-1.92-2.82-2.35-4.8-2.4h0c-1-1.93-2.82-2.37-4.79-2.43v0c-.81-.79-1.62-1.58-2.42-2.38h0c-1-1.93-2.8-2.37-4.77-2.44l0,0-2.42-2.41h0c-.8-.8-1.61-1.6-2.41-2.41v0l-2.41-2.42h0l-2.4-2.45q0-1.17-.06-2.34c-.79-.8-1.57-1.6-2.36-2.39l-2.39-2.46c0-.78,0-1.57,0-2.35L1099,1939c0-.79,0-1.58-.06-2.38l-2.34-2.43c0-.79,0-1.57,0-2.36,0-2-.46-3.77-2.37-4.82,0-.8,0-1.59,0-2.38-.31-3.32,1.08-7.07-2.37-9.62q0-477.85,0-955.72c0-5.58.44-11.16.68-16.74,4.39.13,8.78.38,13.17.38q642.72,0,1285.42,0c4.39,0,8.77-.4,13.15-.62l.33,72.67c0,3.17,0,6.35.12,9.53.11,2.72,1.57,4.28,4.33,4.75,3.38.58,7.32-.9,9.94,2.58-2.73,0-5.48-.09-8.2.09-4.88.31-6,1.4-6.12,6.55-.16,9-.06,18-.07,27q0,13.2,0,26.39,0,403.8.11,807.59A94.44,94.44,0,0,1,2397.4,1936.67Zm-979.27-506.55h0c0,8.39.49,16.83-.13,25.18-.64,8.55,1.79,16.66,2.92,24.85a283.73,283.73,0,0,0,12.5,52.15,318.5,318.5,0,0,0,23.28,52.31c10.67,19.26,22.48,37.82,37.15,54.05a403.54,403.54,0,0,0,43,41.6c17.41,14.26,36.23,26,56,36.47,22,11.68,45.44,19.36,69.47,25.43,15.41,3.9,30.87,7.82,47,7.36a7.6,7.6,0,0,1,2.39.14c12.92,4,26.2,1.54,39.31,2.12a18.89,18.89,0,0,0,7.06-.89,28.47,28.47,0,0,1,11.83-1.35c9.69.72,19.18-1.31,28.36-3.39,23.68-5.39,46.92-12.15,69.45-21.74,17.41-7.42,33.63-16.74,49.25-26.9a261.24,261.24,0,0,0,47.8-39.54c9.86-10.45,20-20.6,28.7-32.06a344.39,344.39,0,0,0,34.83-57.08c14-28.55,22.82-58.6,27.89-89.77,1.08-6.6,2.8-13.3,2.72-20-.3-28.64,1.28-57.25-4.18-85.83-4.37-22.87-10.44-45.15-19.46-66.31-11.89-27.9-26.76-54.27-46.25-78a401.58,401.58,0,0,0-41.68-42.91,273.32,273.32,0,0,0-45.53-32.66,333.32,333.32,0,0,0-86-35.19,250.08,250.08,0,0,0-29.26-5.5c-11.79-1.55-23.48-4.18-35.46-3.93-15.51.32-31-.36-46.54,1.93-13,1.91-26,3.42-38.73,6.43-25.25,6-49.71,14.36-72.81,26.52-28,14.75-54.19,32-76.33,54.92-6.39,6.61-13,13-19.46,19.56a70.61,70.61,0,0,0-6.38,7.13c-5.72,7.63-11.21,15.45-16.91,23.1a233.92,233.92,0,0,0-24.59,40.91c-10,21.3-18.53,43.2-23.49,66.31-4.43,20.64-8.62,41.3-7.69,62.59C1418.28,1422.11,1418.13,1426.12,1418.13,1430.12Z" transform="translate(-43.4 -47.27)"/><path class="cls-4" d="M2404.56,1065.47c0-9-.09-18,.07-27,.1-5.15,1.24-6.24,6.12-6.55,2.72-.18,5.47-.07,8.21-.09,24.38,0,48.77-.14,73.16.1,7,.07,13.48-1.66,19.87-3.66,8.67-2.72,13.2-10.4,12.47-19.59-.19-2.34-1.1-4.62-1.6-7-1.83-8.54-5.06-17.08-5.14-25.65-.18-17.88-2.52-35.92,1.81-53.68a16.94,16.94,0,0,0,.2-4.78c-.48-10.41,3.72-20.41,2.66-30.87a4.74,4.74,0,0,1,.49-2.32c2.13-4.55,1.79-9.39,1.65-14.16-.49-16.31,1.74-32.74-2.35-48.87,1-8.26-1.87-15.8-4.82-23.19-2.75-6.87-7.27-12-15.13-13.8a74.82,74.82,0,0,0-17.69-2.23c-18.39.17-36.78.06-55.18,0-2.79,0-5.81.61-8.35-.22-10.18-3.31-20.6-1.77-30.92-2.19-3.57-.15-7.35.15-10.66-.91-4.74-1.52-9.44-1.46-14.22-1.46q-48,0-96,0c-7.19,0-14.39,0-21.59,0-2.46,0-4.79.32-6.33,2.57-2.36.22-4.71.62-7.07.62q-49.29.08-98.57,0c-2.36,0-4.71-.42-7.06-.65,0-16.37,0-32.75-.1-49.12,0-7.15.5-14.3-1.9-21.34-1-2.89-.44-6.33-.44-9.52q0-97.65,0-195.31c0-4.78-.12-9.49,1.48-14.21,1-2.92.81-6.29.85-9.46.1-9.19,0-18.37.07-27.56,0-5.56-.39-11.13,1.77-16.55a15.82,15.82,0,0,0,.54-7.11c-1.24-12.44,1.14-24.67,2.82-36.81a339.42,339.42,0,0,1,10.12-48.91c4.14-14.12,7.65-28.49,13.89-41.88,7.4-15.91,15.13-31.66,23.7-47,9.95-17.82,22.7-33.65,35.61-49.19,9.09-10.95,19.18-21.3,30.93-29.83,7.06-5.11,12.52-12.18,20-17,10.31-6.75,20-14.41,31-20.15,2,0,4.08.27,6-.19A429,429,0,0,0,2356,122.45c10.39-4,20.49-8.72,30.78-13,7.36-3,14.94-5.51,22.2-8.73,12-5.33,23.78-11.21,35.77-16.58,16.8-7.53,34.23-9.92,52.38-5.9a27.34,27.34,0,0,0,8.29.7c10.47-1,20.46,2.87,30.81,2.83,5.92,3.1,12.57,1.38,18.77,2.89a136,136,0,0,0,19.82,3.74c11.86,1.08,23.54,3.18,35.28,5,7.23,1.1,11.37,5.06,12.88,12.06-4.8,0-9.64.45-14.37-.1-9.73-1.11-17.94,2.55-26.05,7.11-6.52,3.67-9.55,9.19-10,16.54a54.82,54.82,0,0,0,6.33,30c5.43,10.21,10.54,20.56,16.43,30.54,8.1,13.71,15.46,27.86,23.44,41.65,5.39,9.3,11.09,18.47,19.69,25.32,3.42,2.72,7.34,4.94,10.29,8.09,11.74,12.55,25.92,22.4,37.71,34.92,14,14.83,28.58,29.05,43.17,43.27,9.15,8.93,16,19.93,25.65,28.34a17.34,17.34,0,0,1,2,2.93c7.77,10.56,15.31,21.3,23.46,31.57a108,108,0,0,0,14.34,14.43c3.91,3.37,8.75,6.44,13.85,6.61,10.35.36,20.32,3.73,30.84,2.95,9.54-.72,19.17-.32,28.76-.11a114.05,114.05,0,0,0,27.26-2.39c8.13-1.78,12.55-6.42,12.74-14.63a39.38,39.38,0,0,0-.47-9.54c-3.72-16.28-6.72-32.64-6.78-49.42a12,12,0,0,0-.83-4.67c-1.84-4.22-1.4-8.62-1.48-13a3.75,3.75,0,0,1,1.18.13c16.11,8.12,27.41,20,30.15,38.57.29,1.95,1.24,3.81,1.47,5.76.38,3.15,1,6.44.49,9.48q-2.49,14.06-5.89,27.93c-1.17,4.79-1.72,9.64-.49,14.21a391.13,391.13,0,0,1,9.92,46.57c1.52,10.6,4.44,21,4,31.83a12.28,12.28,0,0,0,.33,4.75c2.89,7.34,1.81,15,2.05,22.51.13,4.38-.78,8.9.85,13.08,1.82,4.66,1.52,9.42,1.52,14.19,0,30.37.26,60.75-.12,91.11a156.7,156.7,0,0,1-3.11,30.75c-1.37,6.38-.24,12.9-2.14,18.91-2.8,8.86-.84,18.33-4.15,27,1,21.07-2.51,42.29,2.13,63.25.5,2.29.12,4.78.22,7.17.11,2.79-.36,5.84.61,8.31,2.11,5.45,1.63,11,1.79,16.56.28,10.32-1.19,20.76,2.22,30.88.49,1.45.16,3.18.16,4.78q0,16.78,0,33.57c0,2,.38,4.16-.26,5.95-3.17,9-2,18.18-2.09,27.31-.13,18.38.07,36.76-.08,55.14-.12,13.52.5,27-2.11,40.49-2.52,13.05-7,19.75-19.58,22.14-8.19,1.56-16.35,3.21-24.52,4.83-10.33,2-20.19-.19-27.67-7.81-5-5.12-10.44-6.28-17.16-6.27q-128.28.22-256.57.12c-3.57,0-7.34-.26-10.68.74-6,1.81-10.2-.3-13.27-5a35.9,35.9,0,0,0-7-8.11c-3-2.47-5.57-2.48-8.57.17s-5.75,5.55-8.58,8.37c-10.7,10.65-23.63,15.85-38.7,15.84-10.39,0-20.78,0-31.17,0a53,53,0,0,1-8.37-.25c-9.54-1.56-18.85.13-28.15,1.73-10.73,1.85-20.74,5.6-29.59,12.17C2407.16,1065.35,2405.73,1065.23,2404.56,1065.47Zm339.62-28.8h147.57c2.79,0,5.6.14,8.39-.06,10.1-.7,17.14-7.56,18-17.5.23-2.78.07-5.6.07-8.4V808c0-2.39.1-4.8,0-7.19-.51-9-4.22-13.82-12.72-16.64-10.16-3.38-20.65-2.47-30.82-1a120.15,120.15,0,0,1-16.57,1.56c-49.18,0-98.37-.07-147.56.08-11.51,0-23.18-1.53-34.5,2.19a12.15,12.15,0,0,1-3.58.14c-12,0-24,.07-36,0a57.9,57.9,0,0,1-8.26-1c-10.59-1.61-21-4.6-31.9-3.68-2,.16-4.36,0-5.78,1-6.86,5-13.1,10.67-13.08,20.25,0,2.8,0,5.6,0,8.4q0,85.17,0,170.35c0,5.55.58,11.1-1.32,16.62-2,5.9,2.74,11.53,1.45,17.62a14.84,14.84,0,0,0,.4,5.94c2.7,12.59,4.63,14.14,17.57,14.14Q2669.81,1036.69,2744.18,1036.67Zm-384.1-314.4h109.17c8.4,0,16.8.13,25.19,0,14.1-.28,22.87-9.4,22.91-23.62a44.18,44.18,0,0,0-1.3-10.63,128.62,128.62,0,0,1-3.36-19.93c-1-12.68-3.69-25.25-2.62-38.08a14.51,14.51,0,0,0-.65-4.72c-3.44-13.41-1-27-1.5-40.55,3.5-9.69,1.86-19.76,2.24-29.69a106.27,106.27,0,0,1,.77-11.91c1.67-11,2.78-22,4-33.06a27.41,27.41,0,0,0-.16-7.18,18.32,18.32,0,0,0-21.92-15.26c-5.44,1.12-10.77,2.8-16.22,3.8-9.78,1.79-19.56,3.64-29.64,2.93-6.77-.48-13.74.6-20.34-.6-12.14-2.2-24.16-4.85-36.61-4.34a14.52,14.52,0,0,1-5.88-.8c-4.25-1.72-8.62-1.52-13-1.53q-23.39,0-46.79,0c-2.39,0-5-.46-7.15.29-9.37,3.22-19,1.74-28.53,2.11-4,.15-8.22-.42-11.89.76-5.53,1.78-11,1.52-16.59,1.62-6.8.13-13.86-.95-20.31.59-8,1.9-15.83,1.61-23.77,1.81-3.6.09-7.27-.41-10.79.16-12.82,2.07-18.1,6.88-21,16.73a76.8,76.8,0,0,0-2.8,18.81c-.59,15.51-.28,31-2.16,46.51-2,16.53,1.09,33.49-2.75,50,0,23.19,0,46.39,0,69.58,0,4.65,1.79,8.47,4.25,12.22,8.81,13.39,22.36,15.61,36.66,14.83,4.72-.25,9.51-.84,14.27-.84Q2295.9,722.23,2360.08,722.27Zm88.18-292.78c9.64-.22,18.87.91,27.8-2.23a10.62,10.62,0,0,1,4.77-.15c5.76.74,11.28-1.07,16.36-2.88,7.9-2.82,15.3-7.44,18.48-15.86A59.48,59.48,0,0,0,2519.8,391c.8-12.85-.9-25.47-3.67-37.89-1-4.64-1.31-9.36-2.82-14-5.2-16-11-31.56-18.63-46.6-7.94-15.76-19.44-28.13-33.25-38.57-10.78-8.16-22.24-15.44-32.83-23.84-10.27-8.15-20.33-16.68-26.57-28.75-5-9.73-12.63-17.61-21.07-24.25-9.32-7.34-20.27-10.15-32.51-9.55-8.48.42-15.29,3.32-22.14,7.69-12.4,7.91-20.77,19.58-29.63,30.81-6.64,8.42-12.63,17.41-19.67,25.47a382.59,382.59,0,0,0-27.53,36c-19.32,28.24-38.58,56.56-52,88.42-6,14.29-10,28.4-9,43.95a23.79,23.79,0,0,0,6.09,15.14c10.56,11.87,25,13.57,39.27,13.73,8.95.11,18-2.8,26.9-4.64,3.1-.64,6.11-1.56,9.31-2,16.42-2.13,32.45,1.77,48.59,3.3,5.47.52,11,1.55,16.54,1.56q39,.06,78,0c3.2,0,6.64-.59,9.54.38C2431.25,430.34,2440,429.11,2448.26,429.49Zm273,292.78h111.49a71.06,71.06,0,0,0,8.39-.13,11.54,11.54,0,0,0,5.51-1.9c6.28-4.82,9.65-11.58,11.39-19.12.62-2.72-.1-5.48-1.3-8.14a28.67,28.67,0,0,0-6.4-8.58q-8.94-8.86-17.8-17.8c-5.62-5.65-10.55-12-16-17.69s-12.1-10.25-17.7-15.94-10.93-11.77-17.11-16.77c-13.63-11-26.54-22.85-39.16-34.94-17-16.27-33.78-32.79-48.76-51-1.51-1.83-2.79-3.85-4.17-5.8-10.91-15.48-24-28.62-40.37-38.43-6.62-4-13.38-6.84-21.4-6.24-6,.45-12-.12-18,.14a56.49,56.49,0,0,0-25,7,17.91,17.91,0,0,0-9.78,15.42c-.23,3.56-.66,7.45.44,10.7,2.25,6.67,1.84,13.4,1.85,20.15q0,79.72,0,159.44c0,14.62,6.25,23.43,19.33,28.43,3.92,1.5,7.87,1.15,11.82,1.15Q2664.89,722.32,2721.22,722.27Z" transform="translate(-43.4 -47.27)"/><path class="cls-5" d="M2128.63,780.05c2.35.23,4.7.64,7.06.65q49.28,0,98.57,0c2.36,0,4.71-.4,7.06-.62,4,.23,7.94.64,11.91.65,26.73,0,53.47.15,80.21,0,20.46-.12,38.51,5.57,53,20.64a3.41,3.41,0,0,0,1.07.5l12.16,18.93c3.65,12.33,4.73,24.9,4.58,37.77-.32,27.93,0,55.87,0,83.81-4.38.22-8.76.62-13.15.62q-642.7,0-1285.42,0c-4.39,0-8.78-.25-13.17-.38l-.06.26q-.06-44.33-.14-88.65c0-4-.32-8-.49-11.93a3.65,3.65,0,0,0,.23-3.73c2.13-3.26,2.19-6.94,2.18-10.64v0a9.68,9.68,0,0,0,2.5-7.2l0,.08a5.38,5.38,0,0,0,2.31-4.91l0,0a5.41,5.41,0,0,0,2.62-4.69l-.07.12a13.64,13.64,0,0,0,5.11-7.16l-.2.21a3,3,0,0,0,2.4-2.72l-.12.13a2.86,2.86,0,0,0,2.45-2.56l-.09.09a2.88,2.88,0,0,0,2.57-2.44l-.13.12a2.94,2.94,0,0,0,2.73-2.37l-.2.2a5.27,5.27,0,0,0,4.19-3l.32-.19a2.52,2.52,0,0,0,2.68-2l-.12.1c2-.11,3.68-.72,4.71-2.57l0,0c2,0,3.78-.42,4.87-2.3l-.06,0c2.74,0,5.36-.4,7.42-2.46a1.67,1.67,0,0,0,2.1-.4c4.39.1,8.73-.08,12.83-1.93,4,.21,7.94.61,11.91.61q218.05,0,436.13,0c4,0,7.93-.43,11.9-.66a45.73,45.73,0,0,0,16.82,0c4,.23,7.93.67,11.89.67q235.32,0,470.65,0C2119.1,780.74,2123.87,780.29,2128.63,780.05ZM2236,862a15.43,15.43,0,0,0,14.84,15.56c8.46.36,16.24-7.2,16.18-15.71a15.5,15.5,0,0,0-16.34-15.29C2242.17,846.88,2236,853.39,2236,862Zm-125.05.5a15.54,15.54,0,0,0,15.36,15.06,15.91,15.91,0,0,0,15.57-16.2c-.35-8.82-7.69-15.32-16.7-14.79A15.1,15.1,0,0,0,2111,862.54Zm95-.78a14.91,14.91,0,0,0-14.95-15.18c-9.17-.27-15.76,6.57-16,15.59-.18,8.11,7.05,15.17,15.17,15.44A15.49,15.49,0,0,0,2206,861.76Z" transform="translate(-43.4 -47.27)"/><path class="cls-5" d="M943.35,216.07l4.41-.4c15.51-1,31-2,46.53-3.16,27.12-1.94,54.27-1.68,81.39-.48,23.52,1,47,2.73,70.32,6.23,38.41,5.75,75.88,14.82,111.44,30.85a268.73,268.73,0,0,1,38.78,21.26c2,1.3,4.14,2.26,6.23,3.38h.11a2.65,2.65,0,0,0,2.72,2.12l.1.07a12,12,0,0,0,6.9,5.19l-.09-.13a2.66,2.66,0,0,0,2.62,2.24v-.05a2.55,2.55,0,0,0,2.54,2.26l.08.07a2.27,2.27,0,0,0,2.34,2.09l.27.23,16.55,16.65.12.14a2.53,2.53,0,0,0,2.19,2.51v0a2.61,2.61,0,0,0,2.25,2.58l-.13-.08a3,3,0,0,0,2.27,2.86l-.24-.24a5.35,5.35,0,0,0,3.1,4.32l0,.1a2.73,2.73,0,0,0,2.08,2.8l-.18-.21a5.35,5.35,0,0,0,2.84,4.54l0,.07a2.78,2.78,0,0,0,1.92,3l-.23-.26c.27,2,.78,3.83,2.74,4.85l-.13-.19c.15,2,.57,3.9,2.52,5l-.14-.21c.16,2.66.82,5.1,2.9,6.95l0,.06c-.12,2.23.21,4.29,2.05,5.83l-.25.78.58.58c1.32,8.79.53,17.57-.14,26.35l0-.1c-2.21,2.89-2.49,6.26-2.37,9.72v-.05c-2,2-2.47,4.55-2.26,7.28a1.64,1.64,0,0,0-.69,2.06l.14-.17c-1.89,1.28-2.12,3.21-2,5.25l0-.06c-2.22,1.81-2.7,4.36-3,7l.17-.24c-1.92,1.14-2.32,3-2.51,5l.18-.2c-2,1.06-2.43,2.93-2.71,4.91l.25-.27a2.83,2.83,0,0,0-1.87,3l0,.06a5.32,5.32,0,0,0-2.78,4.59l.11-.16a12.56,12.56,0,0,0-5,7.26l.21-.21a2.85,2.85,0,0,0-2.22,2.8v0a23.26,23.26,0,0,0-7.73,9.29l.21-.21a3,3,0,0,0-2.5,2.69l.19-.2a3,3,0,0,0-2.58,2.6l.19-.19a3,3,0,0,0-2.59,2.59l.19-.19a3,3,0,0,0-2.65,2.52l.19-.2a37.94,37.94,0,0,0-11.85,10l.07-.05a2.85,2.85,0,0,0-2.84,2.2l.16-.18a11.82,11.82,0,0,0-7.14,5.06l.12-.08a5.06,5.06,0,0,0-4.47,2.82l-.14.08a2.62,2.62,0,0,0-2.86,1.93l.17-.17c-2,.24-3.74.79-4.65,2.78l.06,0c-2,.09-3.69.65-4.67,2.56l-.07,0a4.87,4.87,0,0,0-4.62,2.42l-.16.08a16.4,16.4,0,0,0-9.54,4.67l-.08,0c-2,0-3.81.29-4.88,2.25l0,0c-2,0-3.91.18-5.06,2.16l.08-.08c-2.62.21-5.25.42-7,2.8v0c-2.67-.05-5.18.32-7,2.51l-.13.05a31.82,31.82,0,0,0-14.38,4.69h0c-2.69-.06-5.41-.21-7.37,2.19l.06-.09c-3.37.22-6.88-.08-9.59,2.59l0-.08c-3.41.1-6.94-.26-9.74,2.35l.05-.14c-4.15.19-8.41-.15-12,2.61l0-.15c-4.91.23-10-.26-14.38,2.64l0-.13c-6,.14-12-.22-17.63,2.49l-.71-.43-.65.54c-7.33.11-14.74-.47-21.77,2.41V518c-9.69.3-19.38.56-29.06.92-2.69.1-5.47-.08-7.9,1.51a3,3,0,0,0-3.66,0H1041.3a3,3,0,0,0-3.66,0c-13-2.78-26.2-2.23-39.36-2.41l0,.09c-7.85-3-16-2.31-24.18-2.42l-.66-.53-.72.44c-6.45-2.77-13.27-2.39-20-2.42l0,.11c-5.3-2.94-11.13-2.32-16.84-2.46l0,.07c-4.53-2.81-9.59-2.38-14.58-2.39l-.57-.51-.65.4c-4-2.61-8.55-2.32-13-2.31l0,0c-4.4-2.8-9.39-2.51-14.29-2.7l.05.14c-3.6-2.79-7.87-2.42-12-2.55l.06.13c-2.82-2.64-6.34-2.2-9.76-2.21H871c-3.57-2.61-7.73-2.62-11.87-2.67l.05.11c-2.77-2.68-6.29-2.31-9.7-2.39l0,.07c-2.74-2.66-6.23-2.38-9.63-2.47l0,.07c-2.7-2.69-6.21-2.39-9.59-2.57l0,.1a37.67,37.67,0,0,0-16.89-4.8l0,.05c-1.93-2.35-4.59-2.33-7.27-2.26l-.1,0c-3.78-2-7.4-4.84-12.08-2.47l-.07,0c-4.61.07-8.48,2.08-12.15,4.63l.06-.07c-2.66.07-5.24.33-7.06,2.65h0c-2-.08-3.91,0-5.1,2l.07-.09c-2.64.18-5.31.32-7.07,2.76l0-.05c-2.66,0-5.19.36-7,2.61l-.12,0c-2-.09-3.89,0-5.06,2l.08-.07c-2.66.13-5.3.29-7.08,2.72l0,0c-4.61.12-8.51,2.09-12.17,4.67l.07-.09c-2.66.12-5.27.33-7.07,2.69h0c-4.59.14-8.48,2.1-12.14,4.67l.06-.07c-2.66.06-5.23.34-7.05,2.65l-.07,0c-2-.08-3.9,0-5.09,2l.07-.08c-2.65.17-5.3.31-7.07,2.75l.05,0c-2.67,0-5.2.36-7,2.6l-.11.05c-2-.09-3.89,0-5.06,2l.08-.08c-2.66.13-5.3.29-7.07,2.72l0,0c-4.61.13-8.5,2.11-12.19,4.64l.06-.12c-1.51-.53-4.7-.34-2.69-3.08,3.58-4.91,9.45-7.72,12.72-13l0,0a2.78,2.78,0,0,0,2.58-2.4l-.13.12a2.88,2.88,0,0,0,2.65-2.44l-.17.16a3,3,0,0,0,2.68-2.48l-.2.19a3,3,0,0,0,2.71-2.48l-.21.21a68.54,68.54,0,0,0,16.47-14.94h0a2.72,2.72,0,0,0,2.53-2.37l-.09.09a2.83,2.83,0,0,0,2.61-2.42l-.15.14a2.91,2.91,0,0,0,2.66-2.46l-.18.17a3,3,0,0,0,2.69-2.48l-.19.2a3,3,0,0,0,2.7-2.48l-.2.2a67.94,67.94,0,0,0,16.46-14.95h0a2.78,2.78,0,0,0,2.56-2.39l-.12.11a2.86,2.86,0,0,0,2.63-2.44l-.16.15a2.94,2.94,0,0,0,2.68-2.46l-.19.18a3,3,0,0,0,2.7-2.48l-.2.2a3.07,3.07,0,0,0,2.71-2.48l-.2.2c5.09-2.57,8.61-7,12.74-10.74,1.84-1.66,1.36-3.56-.4-5.09a29.18,29.18,0,0,0-2.89-2V434a2.94,2.94,0,0,0-2.5-2.63l.18.18a3,3,0,0,0-2.47-2.71l.21.21a23.36,23.36,0,0,0-7.59-9.48l.07.1a3,3,0,0,0-2.15-2.95l.25.25c-.36-1.94-1.07-3.65-3-4.54l.06.08a13.1,13.1,0,0,0-4.47-7.66l.18.22c-.23-2-.66-3.89-2.56-5l.19.24c-.37-2.62-.76-5.23-3-7.06l.06.13c0-2.72-.26-5.37-2.42-7.39l.1.18c-.21-4.39-.24-8.82-2.43-12.84a4,4,0,0,0-.2-3.86c0-1.61,0-3.21,0-4.82a4.43,4.43,0,0,0,.19-4c2.1-4,2.29-8.32,2.42-12.68l-.08.17c2.17-2,2.46-4.62,2.56-7.32l-.1.18c1.88-1.17,2.3-3,2.3-5l0,.06a5.37,5.37,0,0,0,2.53-4.83l-.07.11c2-1,2.54-2.77,2.74-4.77l-.19.24a2.69,2.69,0,0,0,1.93-2.89l.1-.17a5.28,5.28,0,0,0,2.79-4.46l-.14.17a2.65,2.65,0,0,0,2-2.74l.11-.18a5.29,5.29,0,0,0,3-4.3l-.21.23a2.9,2.9,0,0,0,2.24-2.82l-.07.08a2.61,2.61,0,0,0,2.16-2.58l.1-.14a12.27,12.27,0,0,0,5.53-6.58l-.21.2a3.06,3.06,0,0,0,2.48-2.71l-.19.2a3,3,0,0,0,2.55-2.63l-.19.19a3,3,0,0,0,2.59-2.59l-.19.19a3,3,0,0,0,2.59-2.59l-.19.19a3,3,0,0,0,2.66-2.51l-.2.19a22.47,22.47,0,0,0,9.11-7.79l.13-.09a2.61,2.61,0,0,0,2.57-2.19l-.08.08a2.83,2.83,0,0,0,2.79-2.24l-.18.19a5.09,5.09,0,0,0,4.2-3l.26-.16a2.52,2.52,0,0,0,2.62-2l-.08.07a2.85,2.85,0,0,0,2.92-2.07l-.17.19c1.93-.33,3.62-1,4.46-3l0,0a4.94,4.94,0,0,0,4.36-2.66l.33-.17a2.48,2.48,0,0,0,2.76-1.89l-.15.13c2-.15,3.7-.75,4.66-2.67l0,0a4.89,4.89,0,0,0,4.55-2.5l.2-.09a4.82,4.82,0,0,0,4.47-2.36l.31-.13a3.46,3.46,0,0,0,3.51-1.91l.79.13.48-.64a4.8,4.8,0,0,0,4.56-2.23l.27-.1a4.83,4.83,0,0,0,4.69-2.22l.15-.06c2,.09,3.77-.31,4.87-2.21l0,0c2.22.06,4.24-.34,5.64-2.29a.93.93,0,0,0,1.46-.49c2,.17,3.76-.21,4.92-2.06l0,0c2.68.1,5.15-.39,7-2.52l.15-.05a8.24,8.24,0,0,0,7-2.38l.21-.07c2.67.21,5.15-.21,7.09-2.28l.12,0c2.79.16,5.45-.1,7.56-2.23a1.49,1.49,0,0,0,2-.44c2.68.29,5.15-.1,7.17-2.08l.11,0c3.4.16,6.71-.05,9.5-2.37l.1,0c3.54.09,7.06.13,10.05-2.24a1.27,1.27,0,0,0,1.85-.34c3.57.24,7.08.18,10.14-2.07a1.25,1.25,0,0,0,1.85-.29c4.3.24,8.54.16,12.39-2.15a1.46,1.46,0,0,0,2-.27C933.63,218.41,938.67,218.44,943.35,216.07Zm74.24,147h0c0,2.4,0,4.8,0,7.19.2,17-2.17,15.2,15.4,15.18,4.67,0,10.22,1.89,13.81-1.57,3.24-3.13,1-8.37,1.37-12.65.25-2.9,1.57-4.06,4.4-4.46,8.71-1.24,17.25-3.19,25.29-6.95,12.61-5.9,21.52-15.2,25.34-28.68,5.51-19.44,2.56-38-7.28-55.45-5.56-9.87-14.08-16.16-25.07-19a85.49,85.49,0,0,0-51.81,2.71c-17.52,6.49-30.52,25.95-30.71,44.86,0,2.36,1,4,3.33,4.08,8.37.19,16.76.19,25.14.15,1.74,0,2.79-1.3,3.32-2.93.86-2.66,1.55-5.38,2.59-8,4.27-10.67,12.06-16.62,23.66-17.16a113.8,113.8,0,0,1,12,0c10.14.59,15.28,4.43,18.3,14.15a49.54,49.54,0,0,1-1.56,34c-3,7.61-8.59,12.31-16.46,14.36a71,71,0,0,1-27.34,1.47c-2.77-.37-5.52-.92-8.3-1.2-4.2-.43-5.23.34-5.32,4.22C1017.49,352.71,1017.59,357.9,1017.59,363.09Zm31.2,59.11a15,15,0,0,0-15.15-15,15.41,15.41,0,0,0-15.92,15.63A15.85,15.85,0,0,0,1034.26,438,15.41,15.41,0,0,0,1048.79,422.2Z" transform="translate(-43.4 -47.27)"/><path class="cls-6" d="M2639.74,2347.08c-7.8-2.53-14.28-6.91-18.84-13.8-5.9-8.91-6.51-18.7-4.11-28.75a53.1,53.1,0,0,1,7.69-17.47c8.16-12,12.68-25.7,18.13-38.95,3.65-8.85,2.85-18.38,1.35-27.21-1.25-7.3-6.55-13.76-13.5-17.53a93.59,93.59,0,0,0-18.59-8c-9.12-2.64-17.52-7.68-26.54-10.79a86,86,0,0,1-20.12-10.38c-7.53-5.06-10.85-12.44-11.85-21.13-1.58-13.72,3-24.8,13.17-34.27,7.41-6.87,15.08-13.07,24.28-17.2,14-6.3,25.94-15.27,36.69-26.34,10.48-10.78,16.42-23.49,19.21-37.76,1.13-5.79,2.71-11.51,2.85-17.64.31-13.79-2.67-26.92-6.3-39.94a169.33,169.33,0,0,0-14-35.59c-4.39-8.07-8-16.59-12.49-24.59a100.72,100.72,0,0,1-13.12-55.07,91.3,91.3,0,0,1,2.32-18.89,41.83,41.83,0,0,1,21.3-27.54c7.31-4,14.57-8.08,23.12-9.54,16.85-2.9,33.25-3.51,48.8,5.27,9.38,5.29,19,10.12,28.31,15.57a62.24,62.24,0,0,1,15,11.8c3.47,3.86,7.42,7.29,10.95,11.11,17.36,18.79,39.41,25.86,64.33,26.74,10.51.37,20.66-1.88,30.8-3.36,7.78-1.15,15.74-1.64,23.54-3.52s15.91,1.29,22.91,5c9.41,5.05,14.05,18.07,12.15,28.83-2.1,11.89-5.31,23.35-11.21,33.87-4.08,7.29-8.79,14.25-13.5,21.15a19.61,19.61,0,0,1-6.07,5.72c-21.06,12.22-36.68,30.6-53.84,47.25a44.66,44.66,0,0,0-7.14,9.55c-4.46,7.51-6.26,15.32-2.51,23.74,2.78,6.22,5.83,12.13,10.91,17,10.4,10,20.37,20.35,30.65,30.44a40.77,40.77,0,0,1,8.29,11.62c3.5,7.3,3.85,14.6.29,21.9-13.47,27.64-27.07,55.21-46.55,79.31-9.6,11.89-12.82,25.56-11,40.41a37.13,37.13,0,0,0,8,19.66,187.78,187.78,0,0,1,15,21.49c4.37,7.08,5.2,15,7.56,22.5.55,1.72-.17,3.91-.57,5.84-2.75,13.24-8.45,24.86-18.94,33.76-2.12,1.8-4.29,3.54-6.44,5.3-9.53-.87-17.17,1.85-24.74,8.52-10,8.78-21.09,16.71-35.18,18.29-.88.1-1.6,1.55-2.39,2.37-3.83,1.52-7.84.89-11.77.9-26.17.06-52.34,0-78.5.09-5.13,0-10.24.74-15.37,1.14,2.2-3.21,5.59-2.56,8.7-2.57,17.55,0,35.1,0,52.65,0h10.35c-15-4.28-29.53-9.13-43-16.7h-14.34c.8-5.85-1-10.6-5.78-14.21-2.13-1.62-4.19-3.33-6.28-5h0C2643.53,2347.52,2641.73,2347.11,2639.74,2347.08Z" transform="translate(-43.4 -47.27)"/><path class="cls-7" d="M2623,105.47c-1.51-7-5.65-11-12.88-12.06-11.74-1.78-23.42-3.88-35.28-5A136,136,0,0,1,2555,84.71c-6.2-1.51-12.85.21-18.77-2.89-10.35,0-20.34-3.79-30.81-2.83a27.34,27.34,0,0,1-8.29-.7c-18.15-4-35.58-1.63-52.38,5.9-12,5.37-23.76,11.25-35.77,16.58-7.26,3.22-14.84,5.7-22.2,8.73-10.29,4.23-20.39,9-30.78,13a429,429,0,0,1-51.08,16.41c-1.89.46-4,.15-6,.19,3.08-7.21,8.23-12.53,14.63-17,5.88-4.08,11.18-9,17.07-13,25.55-17.58,53.62-29.4,83.48-37.82,20.31-5.73,41-9.9,61.3-15.42,5.79-1.56,12.09.43,17.63-2.68,10.39.15,20.35-3.79,30.86-3,5.93.46,11.8-.49,17.76-1.64a67.36,67.36,0,0,1,26.24.06,76.53,76.53,0,0,0,17.77,1.62c11.23-.27,22.07,2.5,33.09,3.85,11.89,1.46,23.37,4.56,34.9,7.67a416.23,416.23,0,0,1,52,17.67c19.22,8,37.61,17.67,56,27.22,17.69,9.18,34,20.66,49.89,32.78,11.06,8.46,22.29,16.68,32.06,26.8,4.91,5.09,12,8.3,16,14.21,7.73,11.25,18.29,19.9,26.7,30.58,9.39,11.91,18.64,23.89,26.45,36.84,7.6,12.59,15.23,25.12,20.81,38.95,5.83,14.43,12.1,28.65,16.59,43.56,6.77,22.47,12.79,45.1,16.19,68.4,1.72,11.78,2.77,23.74,5.11,35.29,2.22,11-.09,22.41,3.94,33.13.93,2.47.24,5.54.3,8.34.13,6.36-.47,12.73,1.87,19,.93,2.49.48,5.54.5,8.33,0,10,0,20,0,30,0,4.39,0,8.7,1.43,13,1,2.94.9,6.29.91,9.47q.09,48,0,96c0,4,.16,8-1.43,11.81-1.42,3.43-.91,7.1-.92,10.68-.05,11.2,0,22.4-.06,33.6,0,6.75.53,13.53-1.88,20.15-.91,2.51-.46,5.54-.47,8.34,0,13.19,0,26.39-.05,39.59,0,6.36.27,12.66-1.77,19-1.18,3.66-.57,7.92-.57,11.92q0,112.17-.06,224.34c0,6,.4,11.9-1.74,17.78-1.05,2.86-.7,6.33-.59,9.51.42,11.45-5.46,19.65-13.48,26.83a17.51,17.51,0,0,1-9.9,3.9c-9.47,1-18.69,3.35-28.39,3.33q-257.34-.3-514.68-.14,0-13.2,0-26.39c1.17-.24,2.6-.12,3.46-.76,8.85-6.57,18.86-10.32,29.59-12.17,9.3-1.6,18.61-3.29,28.15-1.73a53,53,0,0,0,8.37.25c10.39,0,20.78,0,31.17,0,15.07,0,28-5.19,38.7-15.84,2.83-2.82,5.58-5.73,8.58-8.37s5.62-2.64,8.57-.17a35.9,35.9,0,0,1,7,8.11c3.07,4.73,7.26,6.84,13.27,5,3.34-1,7.11-.73,10.68-.74q128.28,0,256.57-.12c6.72,0,12.14,1.15,17.16,6.27,7.48,7.62,17.34,9.84,27.67,7.81,8.17-1.62,16.33-3.27,24.52-4.83,12.56-2.39,17.06-9.09,19.58-22.14,2.61-13.51,2-27,2.11-40.49.15-18.38,0-36.76.08-55.14.06-9.13-1.08-18.36,2.09-27.31.64-1.79.25-4,.26-5.95q0-16.79,0-33.57c0-1.6.33-3.33-.16-4.78-3.41-10.12-1.94-20.56-2.22-30.88-.16-5.56.32-11.11-1.79-16.56-1-2.47-.5-5.52-.61-8.31-.1-2.39.28-4.88-.22-7.17-4.64-21-1.13-42.18-2.13-63.25,3.31-8.69,1.35-18.16,4.15-27,1.9-6,.77-12.53,2.14-18.91a156.7,156.7,0,0,0,3.11-30.75c.38-30.36.15-60.74.12-91.11,0-4.77.3-9.53-1.52-14.19-1.63-4.18-.72-8.7-.85-13.08-.24-7.54.84-15.17-2.05-22.51a12.28,12.28,0,0,1-.33-4.75c.44-10.84-2.48-21.23-4-31.83a391.13,391.13,0,0,0-9.92-46.57c-1.23-4.57-.68-9.42.49-14.21q3.41-13.86,5.89-27.93c.54-3-.11-6.33-.49-9.48-.23-1.95-1.18-3.81-1.47-5.76-2.74-18.59-14-30.45-30.15-38.57a3.75,3.75,0,0,0-1.18-.13c-3.35-5.2-9-9.4-7.2-16.8,1.19-1,3.09-1.82,3.47-3.08,2-6.56,2.72-13.21-1-19.51-3.41-5.83-7.35-11.38-10.37-17.4-14.62-29.1-35.8-53.26-57.51-77-5.94-6.5-13.67-10.81-19.83-17.13a270.7,270.7,0,0,0-23.15-20.55c-9.53-7.74-19.69-14.72-29.19-22.5-14.3-11.73-30.35-20.53-47.19-27.67A117.12,117.12,0,0,0,2671.4,105c-7.53-.67-14.71-2.46-22.16.26-1.77.64-3.95.16-5.95.16Z" transform="translate(-43.4 -47.27)"/><path class="cls-6" d="M1614.6,2169.45c54.76,0,109.53-.15,164.29.15a62.61,62.61,0,0,0,25.51-5.4c7-3,12.41-9.07,16.26-15.49,6.92-11.52,16.4-20.61,26-29.58,11.55-10.8,25.52-17.71,40.81-21.44,27.37-6.67,52.72-1.43,76.63,13.28,11.09,6.83,20.22,15.63,28.79,25.05,7.69,8.46,10.7,19.34,13.21,30.32,3.6,15.77,2.83,31.77,2.16,47.65-.33,7.81-2.76,15.65-5.13,23.2a39.28,39.28,0,0,1-10.75,17c-10.15,9.55-19.31,20.12-31.73,27.14-10.47,5.93-21.21,11-33.13,12.86-4.7.76-9.11,2.49-14.06,2.56-26.16.34-48.1-9.65-67.13-26.81-11-9.91-21.34-20.6-28.42-33.71-5.29-9.79-14.24-12.1-23.75-13.88-2.7-.51-5.58-.11-8.38-.11H1604.69c-2.4,0-4.81-.1-7.2,0-10.78.61-18.17,7.35-18.3,18.17a35.54,35.54,0,0,1-5.27,18.1c-4.68,8-15.6,12.07-24.05,8.6-4.85-2-8.84-5.58-9.26-11.51-.44-6.35-3.22-12.34-2.58-18.88.35-3.48-1.8-6.06-4.51-8-5.63-4-12.47-1.55-14,5.11a45.22,45.22,0,0,0-.56,8.33c-.1,2.8.35,5.67-.14,8.38-2.13,11.74-7.35,18.4-18.69,17.28-1.58-.15-3.2,0-4.79,0-10.15-.38-15.33-7.33-13.35-17.63a43.72,43.72,0,0,0,.88-9.47,14.53,14.53,0,0,0-19.56-13.09,6,6,0,0,0-4.11,5.42c-.21,3.18-.17,6.38-.27,9.57-.46,14.06-9.52,22.76-23.76,22.82-1.6,0-3.2,0-4.8-.06a9.71,9.71,0,0,1-9.18-6.58c-1.69-4.42-3.23-8.92-3.12-13.91.26-12,0-24,.13-36,.11-7.56,2.11-14.93,2.92-22.44.95-8.92,10.25-15.74,20.76-16.9a97,97,0,0,1,10.79-.17Zm343.68,50.41c5,.07,9.27-.18,13.54-1.75,9.67-3.56,14.77-10.44,15.21-20.48.4-9-4.39-19.31-14.28-22.69-6.68-2.28-13.78-4-21.12-3.07-2,.26-3.94.48-5.62,1.71-7.69,5.64-11.23,13.92-11.35,22.74a25.38,25.38,0,0,0,7.67,18.34A19.11,19.11,0,0,0,1958.28,2219.86Z" transform="translate(-43.4 -47.27)"/><path class="cls-5" d="M2642.24,2388c5.13-.4,10.24-1.12,15.37-1.14,26.16-.12,52.33,0,78.5-.09,3.93,0,7.94.62,11.77-.9a18,18,0,0,0,3.43.66q33.09,0,66.17,0a29.89,29.89,0,0,0,4.63-.73c1.53.37,3,.86,4.61,1.09,10,1.5,15.89,11,13.92,21.37a150.49,150.49,0,0,1-4.52,16c-.58,1.87-1.53,4.27-3.56,4.39-5,.29-5.44,3.41-5.81,7.25-1.49,15.4-3.17,30.78-4.69,46.17-.28,2.75-.14,5.53-.19,8.3-2.46,5.63-2.23,11.56-1.94,17.5l-.24,4.82c-2.11,4.06-1.76,8.55-2.24,12.9-.7,6.35-1.61,12.69-2,19.07-.41,6.59-3.82,11.22-8.81,14.94a29.32,29.32,0,0,1-14.2,6c-6.34.72-12.74,1.68-19.09,1.52-23.18-.56-46.35-1.48-69.52-2.42-9.19-.37-18.35-1.37-27.53-1.63-4.86-.14-8.26-1.77-11-5.85-6.06-9.16-10.3-19-11.36-29.94a199.47,199.47,0,0,1-.93-27.55c.42-10.38.56-20.79.49-31.18a60.68,60.68,0,0,0-5.69-25.5c-4.86-10.49-9.15-21.28-13.07-32.17-4.62-12.81-4-13.89,6.71-21.92A4.59,4.59,0,0,0,2642.24,2388Z" transform="translate(-43.4 -47.27)"/><path class="cls-4" d="M2642.24,2388a4.59,4.59,0,0,1-.77.92c-10.75,8-11.33,9.11-6.71,21.92,3.92,10.89,8.21,21.68,13.07,32.17a60.68,60.68,0,0,1,5.69,25.5c.07,10.39-.07,20.8-.49,31.18a199.47,199.47,0,0,0,.93,27.55c1.06,11,5.3,20.78,11.36,29.94,2.7,4.08,6.1,5.71,11,5.85,9.18.26,18.34,1.26,27.53,1.63,23.17.94,46.34,1.86,69.52,2.42,6.35.16,12.75-.8,19.09-1.52a29.32,29.32,0,0,0,14.2-6c5-3.72,8.4-8.35,8.81-14.94.41-6.38,1.32-12.72,2-19.07.48-4.35.13-8.84,2.24-12.9,4.17.28,7.32,2.81,10.84,4.68a169.47,169.47,0,0,0,61.09,19.12,72.13,72.13,0,0,1,20.6,5.55c7.59,3.22,11,8.85,10.75,16.91,0,1.59,0,3.19,0,4.79.15,6.08-3,9.6-8.58,11.43-4.19,1.37-8.32,2.69-12.84,2.36-3.18-.23-6.41.14-9.59-.07a33.5,33.5,0,0,0-18.34,4.23c-11.7,6.17-24.62,9-37.34,12.2-2.28.57-4.77.33-7.16.4s-5-.47-7.16.23c-10.56,3.37-21.39,1.83-32.11,2.15-4,.11-7.93,0-11.81-1.4a23.12,23.12,0,0,0-7.07-.92c-8.35-.22-16.79.71-24.88-2.29-22.7-.31-45.28-4.17-68-2.46a150.2,150.2,0,0,0-22.39,3.1c-9.16,2.09-18.08,2.49-27.12-.14a19.74,19.74,0,0,0-4.74-.61c-23.12-.82-43.2-10.11-62.11-22.46-4.7-3.07-9-6.82-8.31-13.5.26-2.52.88-4.8,3.08-6.16,5.09-3.13,10-6.7,15.47-9a190.12,190.12,0,0,1,34.15-10.74c5-1.07,10.34-.47,15.53-.57,3.59-.06,7.19,0,10.79,0,12.47-.14,15.83-6.94,16.86-18.66a6.53,6.53,0,0,0-.22-2.37c-5.28-17.54-6.61-35.9-11.24-53.58-2.54-9.67-5.12-19.26-9.85-28.12-7.38-13.83-6-27.68,0-41.45,2.36-5.5,5.43-10.69,7.95-16.12,3-6.5,5.79-13.12,8.67-19.68,2.08,1.67,4.14,3.38,6.27,5,4.74,3.61,6.58,8.36,5.78,14.21.19,3.72,2,6.77,4.12,9.65a3.82,3.82,0,0,0,6.13,0c2.12-2.88,4-5.91,4.09-9.65,13.5,7.57,28,12.42,43,16.7h-10.35c-17.55,0-35.1,0-52.65,0C2647.83,2385.44,2644.44,2384.79,2642.24,2388Z" transform="translate(-43.4 -47.27)"/><path class="cls-6" d="M2858.17,1415.9c1.23,20.4-7,37.43-20.1,52a66.7,66.7,0,0,1-25.64,17.12c-13.42,5.17-27.35,8.36-42,7.67-6.77-.32-13.57-.06-20.36,0-13.15,0-25.2,3.18-35.22,12.25a22.51,22.51,0,0,1-4,2.58c-2.69,1.54-4.73,4.74-8.37,3.94-4.4-1-8.46-3-10.84-6.91-6.62-10.8-10.7-21.89-5.69-34.93,3.07-8,7.77-14.77,12.45-21.62,3.4-5,8.45-6,14.76-3.91,3,1,5.94,2.28,9,3.31,2.24.77,4.58,2,6.81,1.9,7.43-.37,14,2.36,20.89,4.48s13.83,3.58,20.82,5c3.15.67,6.19-.35,9.3-1.41,10.42-3.53,17.59-10.75,22.82-19.9a89,89,0,0,0,8.2-19.76c3.3-11.47-.38-20.5-7.36-28.6-6.49-7.54-13.57-14.56-23.3-18.31-12.65-4.87-24.77-4.51-36.65,2.21-4.22,2.39-7.58,5.78-11.31,8.76-5.21,4.18-10.42,8.56-18.08,7.75-9.09-1-15.81-5.89-20.35-13-3-4.64-2.71-11,.42-16a79.68,79.68,0,0,1,24.85-25.36c14.47-9.3,30.3-11.64,46.88-10.37,9.61.74,18.77,4.09,27.1,8.67,11.49,6.31,22.37,13.74,33.5,20.71,21.44,13.43,31.3,33.15,31.5,58.1C2858.18,1413.5,2858.17,1414.7,2858.17,1415.9Z" transform="translate(-43.4 -47.27)"/><path class="cls-6" d="M1840.62,477.69c0-3.47-.3-5.52.06-7.45,1.3-7,4.17-12.74,11.94-14.77,7.3-1.91,14.49-4.25,21.68-6.56,3-1,5.93-2.3,8.86-3.53a21.41,21.41,0,0,0,3.18-1.67c10.3-6.55,10.13-29.1-.08-35.78-10.86-7.1-30.64-7.77-39.25,4.14-2.31,3.19-5.48,5.8-8.41,8.51a15.39,15.39,0,0,1-18.67,2,5.77,5.77,0,0,1-3.22-4.7c-.22-3.18-.36-6.35.83-9.45a63,63,0,0,1,20.37-27.56,33.25,33.25,0,0,1,17.76-6.48c7.89-.69,16,.88,23.68-2.09,12.57,1.45,24.23,4.31,31.05,16.73a87.45,87.45,0,0,1,9.25,25.7c.31,1.55,0,3.3.51,4.74,4.45,11.7-.2,21.94-5.46,31.82-3.9,7.33-11,11.34-18.5,14.31a41.28,41.28,0,0,1-8,2.25c-9.15,1.62-16.35,6.12-21,14.18-2.07,3.54-5.14,6.06-7.77,9-5.6,6.33-15.47,1.71-17.69-4.24C1840.38,483.31,1840.78,479.77,1840.62,477.69Z" transform="translate(-43.4 -47.27)"/><path class="cls-7" d="M1619.72,622.1c1.22,11.15-2.76,20.25-10.54,28.08a47.14,47.14,0,0,0-6.28,8.67,14.32,14.32,0,0,0,3.38,19.23,117.48,117.48,0,0,0,10,6.52c6.85,4.29,9.37,10.39,8.28,18.35a13.71,13.71,0,0,1-9.37,11.4c-4.38,1.6-9.42,1.73-13.57-1.9a25.21,25.21,0,0,1-7.54-10.62,272.54,272.54,0,0,0-13-30.77c-2.5-5-4.47-10.69-3.75-16,.83-6.14,2.94-12.43,7.9-17.06,3.21-3,6.33-6.1,9.3-9.34,5-5.44,4.85-8.93-.07-14.52a37.78,37.78,0,0,0-13.49-9.69c-6.75-3-12.51-1.41-16.25,5a46.58,46.58,0,0,0-5.49,14.42c-1.09,5.31-2.51,10.89-8.09,14-5.28,3-11.09,2-14.55-3.15a20.7,20.7,0,0,1-3.27-10.09c-1.4-16.7,9.37-32.78,25.6-39.19,3.32-1.32,6.79-2.29,10.2-3.41a22.37,22.37,0,0,1,3.41-1.06c11.86-1.82,21.66,3.74,31.68,8.72,7.34,3.65,11,10.09,14.17,17.1C1620.63,611.78,1619.33,617,1619.72,622.1Z" transform="translate(-43.4 -47.27)"/><path class="cls-6" d="M2671.62,1526.27c13.83,1.2,24.59,9.25,25.42,24.43.62,11.32-2.45,22.07-12,29.94-7.2,5.94-14.75,7.53-23.27,3.42-2.52-1.21-5-2.47-7.51-3.72-10.49-5.26-14.21-14.29-14.59-25.45s5.29-17.93,14.53-22.67A55.83,55.83,0,0,1,2671.62,1526.27Z" transform="translate(-43.4 -47.27)"/><path class="cls-4" d="M2822.11,2385.77a29.89,29.89,0,0,1-4.63.73q-33.09.09-66.17,0a18.3,18.3,0,0,1-3.44-.66c.8-.82,1.52-2.27,2.4-2.37,14.09-1.58,25.22-9.51,35.18-18.29,7.57-6.67,15.21-9.39,24.74-8.52,0,2.35.06,4.71,0,7.06-.23,5.43,1.92,9.88,5.4,13.86C2817.85,2380.24,2821,2382.21,2822.11,2385.77Z" transform="translate(-43.4 -47.27)"/><path class="cls-4" d="M2819.93,2507.84c-.29-5.94-.52-11.87,1.94-17.5.09,4.16.21,8.33.27,12.49A6.18,6.18,0,0,1,2819.93,2507.84Z" transform="translate(-43.4 -47.27)"/><path class="cls-4" d="M2639.74,2347.08c2,0,3.79.44,4.8,2.42C2642.56,2349.44,2640.78,2349,2639.74,2347.08Z" transform="translate(-43.4 -47.27)"/><path class="cls-5" d="M686.14,2133.47a7.73,7.73,0,0,0-.22,6.23c-2.87,13.82-2.26,27.81-2.21,41.78a7.14,7.14,0,0,0-.18,6.09c-2.95,13-2.23,26.29-2.17,39.5a8.44,8.44,0,0,0-.22,6.38c-2.77,13.77-2.32,27.7-2.2,41.62a7.8,7.8,0,0,0-.21,6.26c-2.87,13.81-2.28,27.79-2.22,41.75-.08,1.34-.17,2.68-.25,4-1.62,2.92-1.38,6.18-1.53,9.33-.37,8-.54,15.92-.94,23.88-.23,4.66-1,5.31-5.9,5.48-4,.13-8,0-11.95,0-14.73,0-29.47.06-44.2,0-6.54,0-6.8-.44-7.37-6.51-.41-4.32.31-8.8-1.87-12.87,0-2.38.17-4.79,0-7.16-1.52-19.92-3.12-39.84-4.67-59.75q-4.79-61.56-9.54-123.1c-3.24-42.23-6.54-84.46-9.62-126.71-2.9-39.85-6-79.7-8.09-119.6a172.2,172.2,0,0,0-15.69-63.44c-20.71-45.52-45.21-89-70.44-132.08-.73-1.25-1.44-3-4.25-2.07-.17,1.54-.41,3.41-.59,5.28q-2.73,28-5.44,56.07c-2.14,21.87-4.35,43.73-6.5,65.6-1.87,19.08-3.66,38.17-5.53,57.26q-3.21,32.8-6.48,65.6-2.86,29.22-5.68,58.45c-2,20.68-4.15,41.34-6.17,62-1.94,19.88-3.75,39.78-5.71,59.66q-4.23,42.93-8.58,85.86c-2.18,21.86-4.59,43.71-6.39,65.61-1.24,15.11-3.92,30.12-3.67,45.35-1.61,2.45-1.54,5.28-1.79,8-.85,9.08-1.81,18.14-2.45,27.23-.62,8.91-.4,9.49-10.76,9.44-16.64-.07-33.29,0-49.94,0-.79,0-1.59,0-2.38,0-7.28-.2-7.6-.54-8.32-8.26-.29-3.15-.64-6.29-1-9.43,0-.8,0-1.59,0-2.38.25-13.09.79-26.19-2-39.11-.09-1.37-.17-2.73-.26-4.1-.14-8.93-.16-17.86-.49-26.78-.15-4.23.35-8.61-1.7-12.6a7.78,7.78,0,0,0-.23-6.22c.18-12.35.56-24.71-2.17-36.88a3.91,3.91,0,0,0-.16-3.91c.05-12.35.6-24.73-2.24-36.91a3.84,3.84,0,0,0-.16-3.89c-.1-6.61,0-13.22-.35-19.82-.26-5,.47-10.17-1.89-14.92a7.28,7.28,0,0,0-.23-6.07c.06-10.84.72-21.72-2.18-32.36a7.06,7.06,0,0,0-.23-6c.14-10.79.63-21.6-2.15-32.19a3.6,3.6,0,0,0-.16-3.79c0-10.86.69-21.76-2.26-32.4a7,7,0,0,0-.23-6c.19-10.71.49-21.43-2.18-31.95a4.28,4.28,0,0,0-.2-4.05c0-10.06.8-20.16-2.19-30a6.91,6.91,0,0,0-.22-6c.06-11.61.66-23.25-2.17-34.68a7.35,7.35,0,0,0-.2-6.12c.6-14.5-.42-29-1.17-43.43a13.59,13.59,0,0,0-1.05-3.32,12.14,12.14,0,0,0-.15-8.44c.12-2.77.41-5.54.34-8.31q-2.38-100.89-.05-201.79c.06-2.77-.22-5.54-.34-8.31a14,14,0,0,0,.21-8.75c2.69-15.4,2.24-30.94,2.21-46.46a7,7,0,0,0,.19-6c2.81-10.65,2.22-21.52,2.18-32.35a4.33,4.33,0,0,0,.21-4.06c2.57-8.9,2.31-18,2.15-27.14a4.32,4.32,0,0,0,.26-4c2.71-8.09,2.33-16.45,2.28-24.78a1,1,0,0,0,.12-1.62c2.58-6.46,2.31-13.21,2.16-20a3.39,3.39,0,0,0,.28-3.63c2.08-2.4,1.34-5.61,2.38-8.31,13.52-.66,27-1,40.55-1.82,28.22-1.63,56.52-1.33,84.78-2.19,39.4-1.19,78.82-2.7,118.25-3.23,13.15-.17,26.29-.5,39.44-.76,2.77,4.81,5.48,9.64,8.32,14.4,4.45,7.46,7.52,15.72,13.05,22.54,0,2,.35,3.84,2.22,5l-.14-.24c.18,2.71.3,5.43,2.6,7.39l-.13-.23c.08,3,.24,5.94,2.51,8.25l-.27.7.55.51c-.16,2.9,0,5.7,2.17,8a1.07,1.07,0,0,0,.36,1.66c-.23,2.87,0,5.62,2.05,7.9a1.11,1.11,0,0,0,.35,1.7c-.24,2.93-.09,5.76,2,8.11l-.28.82.58.65c-.2,3.48,0,6.87,2.27,9.77l0-.12c-.11,3.65-.09,7.27,2.3,10.37a1,1,0,0,0,.29,1.58c-.14,3.48-.23,6.94,2.19,9.85l-.08-.18c0,4.22,0,8.43,2.53,12.12l-.05-.14c-.12,4.23,0,8.41,2.48,12.11l0-.12c-.13,4.23,0,8.42,2.42,12.14l0-.13c-.08,4.23-.1,8.45,2.43,12.16l-.07-.15c-.08,4.35-.07,8.69,2.4,12.56a1.18,1.18,0,0,0,.29,1.79c-.25,3.68-.25,7.3,2.05,10.48l-.32.82.56.68c-.2,4.25-.11,8.44,2.31,12.19l0-.13c-.11,4.38-.13,8.74,2.33,12.64a1.09,1.09,0,0,0,.27,1.72c-.23,3.78-.32,7.53,2.09,10.8l-.34.61.45.54c-.06,4.42-.16,8.84,2.32,12.8a1,1,0,0,0,.24,1.64c-.19,4.25-.22,8.46,2.25,12.22l-.07-.16c0,4.48-.19,9,2.34,13l-.36.69.52.59c-.06,4.42-.19,8.86,2.27,12.83a1,1,0,0,0,.23,1.59c-.21,4.38-.19,8.73,2.21,12.65a1.15,1.15,0,0,0,.25,1.77c-.25,4.34-.16,8.63,2.18,12.53a1.26,1.26,0,0,0,.26,1.87c-.24,4.24-.25,8.44,2.18,12.2l-.07-.15c0,5-.2,10,2.47,14.55l-.07-.15c0,5-.2,10,2.47,14.55l-.07-.15c0,5.09-.14,10.2,2.43,14.86a1.29,1.29,0,0,0,.25,1.89q0,9.6-.1,19.19a7.47,7.47,0,0,0-.21,6.17c-2.89,13.84-2.28,27.85-2.23,41.84a6.87,6.87,0,0,0-.15,6c-3,13.07-2.24,26.33-2.18,39.56a8.14,8.14,0,0,0-.23,6.33c-2.77,13.79-2.33,27.74-2.19,41.67a7.55,7.55,0,0,0-.22,6.19c-2.89,13.83-2.27,27.84-2.22,41.82a7,7,0,0,0-.17,6.06c-3,13.06-2.23,26.31-2.17,39.53a8.28,8.28,0,0,0-.22,6.37C685.58,2105.61,686,2119.55,686.14,2133.47Z" transform="translate(-43.4 -47.27)"/><path class="cls-8" d="M611.82,1458.33c-13.15.26-26.29.59-39.44.76-39.43.53-78.85,2-118.25,3.23-28.26.86-56.56.56-84.78,2.19-13.51.78-27,1.16-40.55,1.82-.13-4-.34-8-.37-11.95-.17-20.36-.25-40.72-.46-61.08-.05-3.92.88-8-1.62-11.63a296.18,296.18,0,0,0-.12-35.38q.06-18.51.11-37c0-2.41-.22-4.8-2.44-6.39l.1.11a5.34,5.34,0,0,0-2.59-4.8l0,0a9.56,9.56,0,0,0-4.74-7.36l.08.12-4.8-12.58-.24-4.15c-.18-9.5-.28-19-.61-28.51-.07-1.88-1-3.74-1.6-5.6,0-3-.09-6.05-.14-9.07q-.31-56.25-.7-112.51c0-1.89-1-3.77-1.55-5.65q0-21.09,0-42.16c3.23-7.94,1.76-16.31,2.26-24.5a2,2,0,0,0,.14-1.93c2.8-3.79,2.18-8.21,2.31-12.49a1.47,1.47,0,0,0,.17-1.66c2.17-2.25,2.26-5,2.09-7.89a1.92,1.92,0,0,0,.27-1.85c2.21-2.16,2.34-4.93,2.27-7.76l0,.06c2.24-2,2.4-4.57,2.32-7.26a1.56,1.56,0,0,0,.31-1.65,6.34,6.34,0,0,0,2.11-5.56v0c2.26-1.88,2.52-4.48,2.54-7.15l-.05.09c2.35-1.88,2.58-4.53,2.62-7.24l-.11.16c1.94-1.13,2.29-3,2.33-5l-.05.08a5.22,5.22,0,0,0,2.23-4.88,1.46,1.46,0,0,0,.39-1.58,6.59,6.59,0,0,0,2.42-5.56l-.11.16c2-1.09,2.38-3,2.45-5l-.1.14c1.91-1.11,2.38-2.94,2.46-5l-.08.12c1.88-1.1,2.43-2.89,2.52-4.91l-.1.14c2-1.06,2.51-2.85,2.6-4.89l-.2.17a3,3,0,0,0,2.18-2.7l0-.07a5.38,5.38,0,0,0,2.66-4.65l-.13.14a3.07,3.07,0,0,0,2.12-2.65l.1-.16a5.11,5.11,0,0,0,2.77-4.5l-.17.15A3.17,3.17,0,0,0,355,931.1l0,0a9.59,9.59,0,0,0,5.15-7.07l-.21.14a3,3,0,0,0,2.5-2.6l-.15.14a3.16,3.16,0,0,0,2.5-2.57l-.13.13a3.31,3.31,0,0,0,2.5-2.54l-.11.11a3.32,3.32,0,0,0,2.5-2.51l-.11.1A3.33,3.33,0,0,0,372,912l-.12.12a3.24,3.24,0,0,0,2.55-2.5l-.13.13a3.1,3.1,0,0,0,2.58-2.49l-.14.15a2.94,2.94,0,0,0,2.6-2.5l-.17.21a4.85,4.85,0,0,0,4.47-2.86l.13-.1a3,3,0,0,0,2.56-2.18l-.07.07a3.09,3.09,0,0,0,2.62-2.38l-.16.18a5.15,5.15,0,0,0,4.63-2.74l.05,0a3,3,0,0,0,2.65-2.23l-.15.17a5.31,5.31,0,0,0,4.76-2.64l0,0a5.27,5.27,0,0,0,4.58-2.55l.17-.09,3.21-2a1.74,1.74,0,0,0,1.67-.49l3.1-1.91a1.78,1.78,0,0,0,1.7-.48l3.23-1.89a1.37,1.37,0,0,0,1.53-.35c2,.06,3.73-.42,4.9-2.2l-.07,0c2.66,0,5.31-.14,7.18-2.47h.06l1,.15,1-.08c11.89,7,23.54,14.51,35.71,21,13.93,7.44,28.42,13.78,44,17.09,4.57,2.61,9.68,3.63,14.68,5,18.89,5,38,9.13,57.15,12.81,36,6.89,72,13.78,107.67,22.42,3,.73,6.19,1.79,10-.62-1.29-4.84-4.16-9.17-6.63-13.61q-23.87-42.9-47.87-85.73c-4.37-7.81-4.38-7.81,2.46-13.6.61-.51,1.3-.93,2-1.4l44.79-32.54,2.88-2.86,0,0,3.25-2.25.63,0,3.17,2.42-.2-.15a5.32,5.32,0,0,0,2.67,4.72h0a3,3,0,0,0,2.26,2.69l-.2-.17a5.22,5.22,0,0,0,2.67,4.8l-.07-.09a5.2,5.2,0,0,0,2.66,4.52l.11.19a2.93,2.93,0,0,0,2.09,2.66l-.14-.14a5.3,5.3,0,0,0,2.67,4.66l0,.05a3,3,0,0,0,2.2,2.69l-.18-.17a5.3,5.3,0,0,0,2.68,4.75l0,0a3,3,0,0,0,2.29,2.69l-.21-.18a5.2,5.2,0,0,0,2.69,4.8l-.07-.08a9.9,9.9,0,0,0,4.82,7.34l-.09-.13a5.25,5.25,0,0,0,2.69,4.6l.06.11a3,3,0,0,0,2.16,2.67l-.16-.16a5.31,5.31,0,0,0,2.69,4.68l0,0a3,3,0,0,0,2.23,2.68l-.18-.17a5.27,5.27,0,0,0,2.69,4.73v0a3,3,0,0,0,2.28,2.68l-.19-.17a5.22,5.22,0,0,0,2.69,4.76l0-.05a3,3,0,0,0,2.32,2.68l-.21-.17a5.23,5.23,0,0,0,2.7,4.77l0-.07a3,3,0,0,0,2.34,2.68l-.22-.17a5.16,5.16,0,0,0,2.71,4.77l-.05-.07a3,3,0,0,0,2.36,2.67l-.22-.17a5.16,5.16,0,0,0,2.71,4.77l0-.07A3,3,0,0,0,770,900.2l-.22-.17a5.14,5.14,0,0,0,2.72,4.76l0-.07a3.07,3.07,0,0,0,2.35,2.67l-.21-.17a5.24,5.24,0,0,0,2.72,4.75l0-.06a3,3,0,0,0,2.33,2.68l-.21-.17a5.18,5.18,0,0,0,2.69,4.79l-.06-.09a5.19,5.19,0,0,0,2.66,4.51l.11.2a3,3,0,0,0,2.08,2.67l-.15-.15a5.39,5.39,0,0,0,2.64,4.73h0a2.94,2.94,0,0,0,2.23,2.71l-.21-.17c.06,2.06.7,3.81,2.64,4.86l-.09-.14a5.43,5.43,0,0,0,2.59,4.8l0,0a5.32,5.32,0,0,0,2.53,4.66l0,.09a2.87,2.87,0,0,0,2.13,2.73l-.2-.17c0,2.06.59,3.86,2.58,4.91l-.11-.15c.07,2,.59,3.85,2.54,4.92l-.1-.14c.08,2,.6,3.83,2.52,4.92l-.09-.13c.08,2,.57,3.84,2.48,4.94l-.1-.14c.07,2,.52,3.87,2.47,5l-.1-.15a6.49,6.49,0,0,0,2.42,5.47,1.78,1.78,0,0,0,.46,1.71,5.07,5.07,0,0,0,2.19,4.75h0c0,2,.42,3.82,2.27,5l-.08-.14c.06,2.69.29,5.32,2.6,7.18v0c0,2.16.4,4.12,2.16,5.57a1.53,1.53,0,0,0,.3,1.63c-.07,2.7,0,5.34,2.3,7.31l0-.1c.1,3.5-.17,7.08,2.39,10a2.32,2.32,0,0,0,.19,2q-.16,12-.34,23.92l.16-.21a3.14,3.14,0,0,0-2.18,2.68l-.06.08a10,10,0,0,0-4.81,4.69l0,0a3,3,0,0,0-2.64,2.23l.14-.16c-2,.09-3.85.54-4.91,2.51l.13-.09c-2.69.08-5.36.18-7.25,2.56l.09-.06c-3.39.18-6.92-.22-9.66,2.48l.06,0c-5,.28-10.18-.59-14.74,2.39l-1-.18-1,.31c-10.31.21-20.63.34-30.94.7-1.89.06-3.75,1-5.62,1.53l-18.2,0c-1.88-.55-3.74-1.52-5.62-1.58-12.69-.37-25.39-.55-38.09-.78l-1-.27-1,.24c-2-1.55-4.38-1.74-6.77-1.79q-13.66-.33-27.32-.61l-.91-.28-.93.25c-1.86-.58-3.69-1.6-5.57-1.69-7.91-.35-15.84-.43-23.76-.61l-1-.28-1,.22c-6.74-3.32-14-1.82-21-2.1-2.54-.1-3,2-3,4.14a7.78,7.78,0,0,0,2,5.44l-.05-.11c.11,4.29-.49,8.71,2.36,12.47a2,2,0,0,0,.19,1.91c0,4.24-.54,8.59,2.27,12.32a2.59,2.59,0,0,0,.22,2.12c0,4.16-.62,8.44,2.22,12.08l-.06-.1c.21,5-.65,10.17,2.43,14.7a2.48,2.48,0,0,0,.18,2.11c0,4.31-.66,8.72,2.13,12.55a1.66,1.66,0,0,0,.1,1.78c.27,5.83-.75,11.84,2.34,17.3a2,2,0,0,0,.08,1.91q.3,18.49.6,37c0,2.4.17,4.78,1.69,6.82a48.41,48.41,0,0,0,.16,13.81q.3,47.85.69,95.72c0,1.89,1,3.77,1.55,5.65-.83,8.61-.43,17.22.12,25.82q.07,40.15.16,80.31c0,2.78.38,5.56.58,8.35Q612.13,1446.61,611.82,1458.33Z" transform="translate(-43.4 -47.27)"/><path class="cls-1" d="M342.85,2366.26c.32,3.14.67,6.28,1,9.43.72,7.72,1,8.06,8.32,8.26.79,0,1.59,0,2.38,0,16.65,0,33.3,0,49.94,0,10.36.05,10.14-.53,10.76-9.44.64-9.09,1.6-18.15,2.45-27.23.25-2.74.18-5.57,1.79-8,.11,4.39.25,8.78.33,13.17.13,7.75.1,7.61,7.73,6.94,4.37-.38,8.79-.13,13.18-.33,14.7-.67,29.55,1.79,44.09-2.25a13.82,13.82,0,0,1,3.59-.12H601.49c.32-3.26.66-6.76,1-10.26,2.18,4.07,1.46,8.55,1.87,12.87.57,6.07.83,6.47,7.37,6.51,14.73.1,29.47,0,44.2,0,4,0,8,.08,11.95,0,4.92-.17,5.67-.82,5.9-5.48.4-8,.57-15.92.94-23.88.15-3.15-.09-6.41,1.53-9.33q.16,14.78.34,29.56c1.33,4.5,1.33,4.5,7.16,4.79l9.58,0c1.6,2.13,3.9,2.37,6.31,2.37,5.1,0,10.21,0,15.31,0l7.18,0a6.12,6.12,0,0,0,5.1,2.34l11.71,0h4.8a6.09,6.09,0,0,0,5.09,2.35l11.71,0,7.19,0a6.07,6.07,0,0,0,5.07,2.35l9.35,0h4.78c3.38,3.91,8,1.85,12,2.38l4.78,0c3.38,3.91,8,1.85,12,2.39.79,0,1.59,0,2.38,0,3.39,3.92,8,1.85,12,2.4.79,0,1.59,0,2.38,0,1.74,2.8,4.56,2.32,7.21,2.37l7.18,0c2.55,3.48,6.3,2.06,9.63,2.39h2.38c2.54,3.49,6.29,2.07,9.62,2.4h2.38c1,1.92,2.83,2.34,4.81,2.36l4.79,0c2.54,3.49,6.3,2.07,9.62,2.4h0c1.74,2.81,4.56,2.31,7.2,2.38.8,0,1.6,0,2.4,0,1.74,2.81,4.56,2.32,7.2,2.39.8,0,1.6,0,2.4,0,1,1.92,2.82,2.34,4.8,2.37l4.79,0c1,1.92,2.83,2.34,4.81,2.37.8,0,1.6,0,2.4,0,1,1.93,2.82,2.35,4.8,2.37l2.4,0c1,1.92,2.82,2.35,4.8,2.37l2.4,0c1,1.92,2.82,2.35,4.8,2.38.8,0,1.6,0,2.4,0,1,1.93,2.82,2.35,4.8,2.39.8,0,1.59,0,2.38,0l2.42,2.37,2.4,0c1,1.92,2.83,2.35,4.8,2.39.79,0,1.59,0,2.38,0l2.42,2.37c.8,0,1.59,0,2.39,0l2.41,2.37c.8,0,1.59,0,2.39,0l2.41,2.37c.79,0,1.59,0,2.39,0l2.41,2.38c.79,0,1.58,0,2.38,0l2.43,2.38h0l2.39,2.36c.79,0,1.59,0,2.39,0l2.42,2.39h0c1,1.94,2.81,2.37,4.78,2.43h0l2.41,2.4h0l2.41,2.4h0l2.41,2.4h0l2.4,2.4h0l2.4,2.43c0,.79,0,1.58,0,2.38.8.79,1.59,1.59,2.38,2.39h0c0,2,.48,3.77,2.4,4.8h0l0,14.39,0,4.78-2.38,2.42c0,.79,0,1.58,0,2.37l-2.4,2.44h0l-2.39,2.4h0l-2.38,2.39,0,0-2.38,2.38,0,0-2.39,2.38h0l-2.4,2.39h0l-2.41,2.39h0l-2.43,2.39q-1.19,0-2.37,0l-2.41,2.38c-.8,0-1.6,0-2.39,0l-2.39,2.37h0l-2.44,2.39c-.79,0-1.58,0-2.37,0l-2.42,2.38-2.38,0-2.42,2.38c-.79,0-1.59,0-2.38,0-2,0-3.76.46-4.79,2.39-2,0-3.78.47-4.81,2.4-.8,0-1.6,0-2.4,0l-2.42,2.37c-.79,0-1.58,0-2.38,0-2,0-3.76.46-4.81,2.38-.8,0-1.59,0-2.39,0-2,0-3.76.45-4.8,2.38l-2.4,0c-2,0-3.76.46-4.8,2.38l-2.4,0c-2,0-3.76.45-4.8,2.38-.8,0-1.6,0-2.4,0-2,0-3.76.45-4.81,2.37-.8,0-1.59,0-2.39,0-2,0-3.77.45-4.82,2.38l-4.78,0c-2,0-3.77.45-4.81,2.37l-4.79,0c-2,0-3.76.45-4.81,2.37l-4.79,0c-2,0-3.77.45-4.81,2.37l-4.79,0c-2.64.06-5.47-.43-7.2,2.38-.8,0-1.6,0-2.4,0-2.64.07-5.47-.42-7.22,2.38l-4.78,0c-2.64.07-5.47-.42-7.22,2.38l-4.78,0c-3.32.32-7.07-1.1-9.61,2.38H835c-4.06.55-8.64-1.53-12,2.4h-2.39c-4.06.55-8.63-1.52-12,2.39l-4.79,0c-4,.53-8.62-1.54-12,2.38l-4.79,0c-4.05.53-8.63-1.53-12,2.38l-7.18,0-9.34,0a6,6,0,0,0-5.07,2.35h-4.78l-12.92,0c-2.41,0-4.71.23-6.3,2.37h-4.78l-15.3,0c-2.41,0-4.72.24-6.32,2.37h-7.19c-6.69,0-13.38,0-20.07,0-2.41,0-4.72.25-6.34,2.37h-38c-2.77,0-5.6-.18-7.57,2.38h-168c-2-2.56-4.81-2.37-7.57-2.38h-38c-1.62-2.12-3.92-2.37-6.34-2.37l-20.07,0h-7.19c-1.6-2.13-3.9-2.37-6.31-2.37l-15.3,0h-4.79c-1.59-2.15-3.89-2.38-6.29-2.38l-12.92,0h-4.78a6,6,0,0,0-5.08-2.35l-9.34,0-4.79,0a6,6,0,0,0-5.07-2.35l-9.34,0-4.78,0c-3.39-3.91-8-1.84-12-2.39H271c-3.39-3.92-8-1.84-12-2.39h-2.39c-3.38-3.92-8-1.84-12-2.39h-2.39c-1.74-2.8-4.56-2.31-7.2-2.37l-4.8,0c-2.53-3.5-6.29-2.07-9.61-2.39h-2.39c-1.74-2.81-4.56-2.32-7.2-2.38l-4.8,0c-1.74-2.8-4.56-2.31-7.21-2.38l-4.78,0c-1.05-1.92-2.83-2.34-4.81-2.37l-4.79,0c-1.05-1.92-2.83-2.34-4.81-2.37l-4.79,0c-1-1.92-2.84-2.34-4.82-2.37-.8,0-1.59,0-2.39,0-1.74-2.81-4.57-2.32-7.21-2.39-.79,0-1.59,0-2.38,0-1.05-1.92-2.84-2.34-4.82-2.37-.79,0-1.59,0-2.39,0-1-1.93-2.82-2.35-4.8-2.38-.8,0-1.6,0-2.4,0-1-1.93-2.83-2.35-4.8-2.38-.8,0-1.6,0-2.4,0-1-1.93-2.83-2.35-4.8-2.38q-1.2,0-2.4,0c-1-1.93-2.83-2.35-4.81-2.39h-2.37l-2.43-2.37c-.79,0-1.59,0-2.39,0-1-1.92-2.83-2.35-4.81-2.39h0c-1-1.93-2.82-2.35-4.8-2.39-.79,0-1.58,0-2.37,0l-2.43-2.38c-.79,0-1.58,0-2.37,0l-2.43-2.38h0c-1-1.93-2.82-2.36-4.79-2.41h0L91,2500.7c-.8,0-1.59,0-2.39,0l-2.42-2.38h0l-2.38-2.37c-.8,0-1.59,0-2.38,0L79,2493.47h0l-2.4-2.4h0l-2.39-2.39h0l-2.39-2.39h0l-2.39-2.39h0L67,2481.46c0-.8,0-1.6,0-2.4l-2.36-2.38h0c0-2-.47-3.77-2.39-4.81,0-.8,0-1.6,0-2.4q0-6,0-12c0-.79,0-1.59,0-2.38l2.37-2.41q0-1.2,0-2.4c1.93-1,2.36-2.83,2.42-4.8h0l2.4-2.42h0l2.41-2.41h0l2.41-2.41h0l2.41-2.4h0l2.42-2.4h0c2-.06,3.76-.49,4.78-2.42h0l2.42-2.38c.8,0,1.59,0,2.39,0l2.39-2.37h0l2.43-2.39q1.19,0,2.37,0l2.42-2.37c.8,0,1.59,0,2.38,0,.81-.79,1.62-1.58,2.42-2.38.8,0,1.59,0,2.38,0,.81-.79,1.62-1.58,2.42-2.38.8,0,1.59,0,2.38,0l2.43-2.37c.79,0,1.58,0,2.37,0,2,0,3.77-.46,4.81-2.39q1.2,0,2.4,0l2.41-2.36c.8,0,1.59,0,2.38,0,2,0,3.77-.46,4.81-2.39.8,0,1.6,0,2.39,0,2,0,3.77-.45,4.81-2.38.8,0,1.6,0,2.4,0,2,0,3.75-.46,4.8-2.38.8,0,1.6,0,2.4,0,2,0,3.76-.45,4.8-2.38.8,0,1.6,0,2.39,0,2,0,3.77-.46,4.82-2.38l4.79,0c2,0,3.76-.45,4.8-2.37.8,0,1.59,0,2.39,0,2.64-.07,5.47.42,7.2-2.39h0c3.32-.33,7.08,1.09,9.61-2.4.8,0,1.59,0,2.39,0,2.64-.07,5.47.42,7.21-2.39l4.8,0c2,0,3.76-.44,4.81-2.36l4.78,0c2.65-.07,5.47.42,7.22-2.38H223c3.32-.33,7.08,1.09,9.62-2.39l7.19,0c2.64-.06,5.46.42,7.21-2.38.79,0,1.58,0,2.38,0,4-.55,8.63,1.52,12-2.4l7.19,0c2.64-.05,5.46.43,7.21-2.36l4.78,0,9.34,0a6,6,0,0,0,5.07-2.35h4.79l9.34,0a6,6,0,0,0,5.07-2.35H319l9.35,0a6,6,0,0,0,5.07-2.34l7.18,0h2.29Zm345.66,107.3h70.71c3.19,0,6.39-.09,9.58-.06,1,0,1.66-.29,1.71-1.27a3.55,3.55,0,0,0-.48-2.15,17.88,17.88,0,0,0-2.55-2.52q-48.15-43.23-96.24-86.52c-3.9-3.53-8-4.62-13-4.56-14.38.2-28.76.07-43.14.07-1.6,0-3.2,0-4.79.07-4,.27-5.07,1.26-5.36,4.85-.09,1.2-.07,2.4-.07,3.6q0,40.14,0,80.29a38,38,0,0,0,.27,4.77,3.29,3.29,0,0,0,3.1,3.07c3.17.26,6.37.35,9.56.35Q653.17,2473.59,688.51,2473.56ZM512.2,2493.87c-1.49-1.58-2.5-2.8-3.67-3.85q-48.06-43.18-96.11-86.42a16.17,16.17,0,0,0-11.86-4.38c-15.56.18-31.12.06-46.68.08a39.74,39.74,0,0,0-4.76.26,3.45,3.45,0,0,0-3.2,3,20.28,20.28,0,0,0-.24,3.57c0,27.53-.05,55.06,0,82.59,0,6.52.43,6.77,6.77,7,1.2,0,2.39,0,3.59,0q74.81,0,149.61,0C507.53,2495.64,509.59,2496.31,512.2,2493.87Z" transform="translate(-43.4 -47.27)"/><path d="M487.76,660.15a4.34,4.34,0,0,0,4-.44c5.12.24,10.22.35,15-2a4.57,4.57,0,0,0,4.2-.37c5.78.2,11.58.47,17-2.1a1.47,1.47,0,0,0,2.17-.26c2.94.31,5.86.53,8.1-2l.92.18.6-.72a4.31,4.31,0,0,0,4.43-2.19l.4-.16a3.17,3.17,0,0,0,3.45-1.88l.84.14.47-.72c1.35.18,2.41-.17,2.88-1.58l-.45-.55.4.59c2.09-.21,4-.67,5.21-2.69a1,1,0,0,0,1.57-.62,3.08,3.08,0,0,0,3.44-1.77l.84.19.51-.7a4.66,4.66,0,0,0,4.78-2.09l.13,0c2.72.08,5.31-.27,7.38-2.28a1.49,1.49,0,0,0,2.1-.32l4.74-.1,2.45.31a9.51,9.51,0,0,0,7,2.47h0c1,1.94,2.79,2.38,4.76,2.43h0c.85,2,2.59,2.52,4.5,2.78l.37-.48-.44.41a2.59,2.59,0,0,0,2.8,2l0,0a2.22,2.22,0,0,0,2.48,2l.29.21,9.32,9.52.1.13a2.6,2.6,0,0,0,2,2.77l-.12-.16c.21,2,.77,3.73,2.66,4.76l-.05-.1a10.65,10.65,0,0,0,2.49,7.27l0-.11.36,9.55a68.74,68.74,0,0,1-9.79,20.58,25.81,25.81,0,0,0-8.28,8A243.36,243.36,0,0,1,565,729.42c-3.34,1.25-6.55,2.9-9.76,4.48a9.89,9.89,0,0,0-5.91,9.57c0,6.38-.25,12.76-.33,19.15a57,57,0,0,1-2.37,16.53c-1.26,4-5.58,5.2-8.42,2a127.09,127.09,0,0,1-8.58-11.46c-4.38-6.18-8.27-12.75-13.09-18.55-6.38-7.7-11.88-6.9-16.6,1.7a27.37,27.37,0,0,0-1.46,3.27c-4.57,11.39-6.26,23.25-3.42,35.16a16,16,0,0,1-1.6,12.46,47.7,47.7,0,0,1-4,6c-13,16.83-28.38,31.31-44.9,44.63a11.18,11.18,0,0,1-7.65,2.8l-2.48-3.21.08.22c-.37-13.28-.69-26.55-1.17-39.82-.09-2.29-.89-4.54-1.35-6.81a6.76,6.76,0,0,0-.19-6c-.2-9.81-.35-19.61-.64-29.41-.07-2.71.13-5.55-1.62-7.95,1.13-2,.71-3.92-.18-5.84.34-6.12.84-12.25-2.11-18l.34-.67-.52-.55c.17-4.28.17-8.52-2.29-12.3l.07.19c-.16-6.8-.29-13.6-2.43-20.16a4.37,4.37,0,0,0,0-4.86c2-4.18,2-8.71,2.41-13.18l0,.12c1.76-1.2,2.24-3,2.23-5l0-.07a5.52,5.52,0,0,0,2.93-4.37l-.12.13a2.78,2.78,0,0,0,2.37-2.6l-.08.09a2.74,2.74,0,0,0,2.65-2.24l-.53-.48.47.54c1.87-.31,3.57-.91,4.42-2.82h0c2.1,0,4.07-.35,5.35-2.29a1.11,1.11,0,0,0,1.72-.5c2.25.23,4.35,0,5.89-1.92l.75.3.53-.61c2.92.16,5.79.13,8.09-2.09l.86.34.66-.65c3.58.11,7.16.2,10.24-2.12a1,1,0,0,0,1.76-.29C479.37,662.38,483.76,662.5,487.76,660.15Z" transform="translate(-43.4 -47.27)"/><path class="cls-9" d="M436.89,857.13a11.18,11.18,0,0,0,7.65-2.8c16.52-13.32,31.88-27.8,44.9-44.63a47.7,47.7,0,0,0,4-6,16,16,0,0,0,1.6-12.46c-2.84-11.91-1.15-23.77,3.42-35.16a27.37,27.37,0,0,1,1.46-3.27c4.72-8.6,10.22-9.4,16.6-1.7,4.82,5.8,8.71,12.37,13.09,18.55a127.09,127.09,0,0,0,8.58,11.46c2.84,3.19,7.16,2,8.42-2A57,57,0,0,0,549,762.62c.08-6.39.33-12.77.33-19.15a9.89,9.89,0,0,1,5.91-9.57c3.21-1.58,6.42-3.23,9.76-4.48A243.36,243.36,0,0,0,605.89,710c2.9.5,3.44,3.79,5.8,4.92a22.48,22.48,0,0,1,1.9,18.29c-2.22,7.25-1,13.83.27,20.7-3.11,2.36-4.31,5.7-4.4,9.38a23.53,23.53,0,0,1-2.88,10.27c-2.54,4.92-2.3,9.93-1.13,15.12,2,8.91,4.11,17.8,5.65,26.79,1.34,7.88,2.15,16.22.14,23.8-6,22.44-18.5,40.42-39.44,51.61-6.46,3.45-13.55,5.2-20.81,3.86-6.21-1.15-12.51-2.35-18.19-5.5-4.46-2.47-9.06-4.68-13.82-7.12-4.51,10.54-2.78,21.63-5.38,32-15.6-3.31-30.09-9.65-44-17.09-12.17-6.5-23.82-14-35.7-21,.09-2.45.19-4.91.28-7.36a9.17,9.17,0,0,0,.07-2.22C437.49,864,436.06,860.25,436.89,857.13Z" transform="translate(-43.4 -47.27)"/><path class="cls-10" d="M613.86,753.94c-1.29-6.87-2.49-13.45-.27-20.7A22.52,22.52,0,0,0,611.7,715q1.23-6.44,2.47-12.88A68.74,68.74,0,0,0,624,681.49c2.39-1.72,4.55-1.94,6.78.47a47,47,0,0,0,5.07,4.21l0,.08,2.25,2.55-.09-.09c.14,2,.72,3.7,2.54,4.77h0c.06,2,.54,3.76,2.35,4.9l0-.08c.06,2.74,0,5.52,2.37,7.53a3.93,3.93,0,0,0,.12,2c0,5.09,0,10.17,0,15.26,0,2.4.38,4.69,2.39,6.34h0c0,2,.48,3.77,2.33,4.89l0-.07c.07,2,.57,3.77,2.44,4.87l0-.07c.1,2,.64,3.73,2.48,4.8v0c.08,2,.64,3.67,2.47,4.7l.05.08,2.18,2.88a4,4,0,0,0,.4,2l2.08,2.43-.07-.08c.12,2,.7,3.68,2.55,4.7l0,0,2.25,2.6-.12-.11c.11,2,.7,3.74,2.58,4.78l0,0c.76,1,1.52,2,2.29,3a3.43,3.43,0,0,0,.38,1.91l2.13,2.44-.07-.08c.14,1.94.72,3.63,2.59,4.6l.09.14a3.18,3.18,0,0,0,2.18,2.56l-.09-.09c.14,2,.74,3.65,2.61,4.63l.06.1a3.22,3.22,0,0,0,2.22,2.57l-.1-.1c.15,2,.75,3.65,2.62,4.63l.06.1a3.23,3.23,0,0,0,2.22,2.56l-.09-.09c.15,1.94.75,3.62,2.63,4.58l.09.14,2.19,2.55-.07,0c.79,2.09,2.64,2.51,4.53,2.87L653,839.36c0-4.59-2.39-8.35-4.34-12.25q-15.17-30.48-30.34-60.94C616.36,762.27,613.9,758.54,613.86,753.94Z" transform="translate(-43.4 -47.27)"/><path class="cls-11" d="M611.82,1458.33q.31-11.71.61-23.42h.88l.88,0,.14.2,2.17,2.21a7.23,7.23,0,0,0,2.12.28l2.68,2.41-.06,0,2.48,2.42,0,0,2.47,2.4,0,0,2.44,2.34,0,0,2.38,2.26.13.09c.92,1.93,2.64,2.48,4.59,2.6l-.06-.07,2.47,2.43-.05-.06,2.48,2.41,0,0,2.44,2.4h0l2.4,2.45,0,0c.81.83,1.61,1.66,2.42,2.48l-.06,0c.81.89,1.61,1.78,2.41,2.68a7.57,7.57,0,0,0,.27,2.12l2.24,2.28,0,.06,2.33,2.43h0l2.39,2.47-.05,0,2.41,2.64a8.65,8.65,0,0,0,.29,2.21c-.17,1.55-.34,3.1-.52,4.65a8.33,8.33,0,0,0-2.16.29l-2.3,2.19,0,0-2.66,2.3a8.85,8.85,0,0,0-2.18.19l-2.64,2.2-1.07,0-1.07.13c-2,0-3.83.45-5,2.27l-4.55.28-2.57,0c-5.53-6.82-8.6-15.08-13.05-22.54C617.3,1468,614.59,1463.14,611.82,1458.33Z" transform="translate(-43.4 -47.27)"/><path class="cls-1" d="M340.84,2324.77c2.79,12.92,2.25,26,2,39.11l-2.28,0Q340.69,2344.31,340.84,2324.77Z" transform="translate(-43.4 -47.27)"/><path class="cls-6" d="M2387.5,801.82a3.41,3.41,0,0,1-1.07-.5c-14.48-15.07-32.53-20.76-53-20.64-26.74.17-53.48.07-80.21,0-4,0-7.94-.42-11.91-.65,1.55-2.25,3.88-2.57,6.34-2.57,7.2,0,14.4,0,21.59,0q48,0,96,0c4.78,0,9.48-.06,14.22,1.46,3.31,1.06,7.09.76,10.66.91,10.32.42,20.74-1.12,30.92,2.19,2.54.83,5.56.22,8.35.22,18.4,0,36.79.12,55.18,0a74.82,74.82,0,0,1,17.69,2.23c7.86,1.8,12.38,6.93,15.13,13.8,2.95,7.39,5.79,14.93,4.82,23.19,4.09,16.13,1.86,32.56,2.35,48.87.14,4.77.48,9.61-1.65,14.16a4.74,4.74,0,0,0-.49,2.32c1.06,10.46-3.14,20.46-2.66,30.87a16.94,16.94,0,0,1-.2,4.78c-4.33,17.76-2,35.8-1.81,53.68.08,8.57,3.31,17.11,5.14,25.65.5,2.33,1.41,4.61,1.6,7,.73,9.19-3.8,16.87-12.47,19.59-6.39,2-12.91,3.73-19.87,3.66-24.39-.24-48.78-.1-73.16-.1-2.63-3.48-6.57-2-9.95-2.58-2.76-.47-4.22-2-4.33-4.75-.12-3.18-.1-6.36-.12-9.53l-.33-72.67c0-27.94-.31-55.88,0-83.81.15-12.87-.93-25.44-4.58-37.77,4.61-6.12,2.29-12.85,1.62-19.41-.06-.57-1-1.35-1.68-1.51C2395.31,798.81,2391,797.82,2387.5,801.82Z" transform="translate(-43.4 -47.27)"/><path class="cls-6" d="M2744.18,1036.67q-74.37,0-148.76,0c-12.94,0-14.87-1.55-17.57-14.14a14.84,14.84,0,0,1-.4-5.94c1.29-6.09-3.47-11.72-1.45-17.62,1.9-5.52,1.31-11.07,1.32-16.62q.09-85.17,0-170.35c0-2.8,0-5.6,0-8.4,0-9.58,6.22-15.21,13.08-20.25,1.42-1,3.82-.88,5.78-1,10.88-.92,21.31,2.07,31.9,3.68a57.9,57.9,0,0,0,8.26,1c12,.12,24,0,36,0a12.15,12.15,0,0,0,3.58-.14c11.32-3.72,23-2.15,34.5-2.19,49.19-.15,98.38-.05,147.56-.08a120.15,120.15,0,0,0,16.57-1.56c10.17-1.43,20.66-2.34,30.82,1,8.5,2.82,12.21,7.64,12.72,16.64.14,2.39,0,4.8,0,7.19v202.75c0,2.8.16,5.62-.07,8.4-.81,9.94-7.85,16.8-18,17.5-2.79.2-5.6.06-8.39.06Z" transform="translate(-43.4 -47.27)"/><path class="cls-6" d="M2360.08,722.27q-64.18,0-128.37,0c-4.76,0-9.55.59-14.27.84-14.3.78-27.85-1.44-36.66-14.83-2.46-3.75-4.27-7.57-4.25-12.22.08-23.19,0-46.39,0-69.58,3.84-16.55.75-33.51,2.75-50,1.88-15.55,1.57-31,2.16-46.51a76.8,76.8,0,0,1,2.8-18.81c2.93-9.85,8.21-14.66,21-16.73,3.52-.57,7.19-.07,10.79-.16,7.94-.2,15.79.09,23.77-1.81,6.45-1.54,13.51-.46,20.31-.59,5.56-.1,11.06.16,16.59-1.62,3.67-1.18,7.91-.61,11.89-.76,9.53-.37,19.16,1.11,28.53-2.11,2.16-.75,4.76-.29,7.15-.29q23.4,0,46.79,0c4.39,0,8.76-.19,13,1.53a14.52,14.52,0,0,0,5.88.8c12.45-.51,24.47,2.14,36.61,4.34,6.6,1.2,13.57.12,20.34.6,10.08.71,19.86-1.14,29.64-2.93,5.45-1,10.78-2.68,16.22-3.8a18.32,18.32,0,0,1,21.92,15.26,27.41,27.41,0,0,1,.16,7.18c-1.2,11-2.31,22.09-4,33.06a106.27,106.27,0,0,0-.77,11.91c-.38,9.93,1.26,20-2.24,29.69.51,13.52-1.94,27.14,1.5,40.55a14.51,14.51,0,0,1,.65,4.72c-1.07,12.83,1.65,25.4,2.62,38.08a128.62,128.62,0,0,0,3.36,19.93,44.18,44.18,0,0,1,1.3,10.63c0,14.22-8.81,23.34-22.91,23.62-8.39.16-16.79,0-25.19,0Z" transform="translate(-43.4 -47.27)"/><path class="cls-6" d="M2448.26,429.49c-8.22-.38-17,.85-25.63-2-2.9-1-6.34-.38-9.54-.38q-39,0-78,0c-5.56,0-11.07-1-16.54-1.56-16.14-1.53-32.17-5.43-48.59-3.3-3.2.41-6.21,1.33-9.31,2-8.93,1.84-17.95,4.75-26.9,4.64-14.29-.16-28.71-1.86-39.27-13.73a23.79,23.79,0,0,1-6.09-15.14c-1-15.55,3-29.66,9-43.95,13.45-31.86,32.71-60.18,52-88.42a382.59,382.59,0,0,1,27.53-36c7-8.06,13-17.05,19.67-25.47,8.86-11.23,17.23-22.9,29.63-30.81,6.85-4.37,13.66-7.27,22.14-7.69,12.24-.6,23.19,2.21,32.51,9.55,8.44,6.64,16,14.52,21.07,24.25,6.24,12.07,16.3,20.6,26.57,28.75,10.59,8.4,22.05,15.68,32.83,23.84,13.81,10.44,25.31,22.81,33.25,38.57,7.58,15,13.43,30.63,18.63,46.6,1.51,4.64,1.79,9.36,2.82,14,2.77,12.42,4.47,25,3.67,37.89a59.48,59.48,0,0,1-4.13,17.33c-3.18,8.42-10.58,13-18.48,15.86-5.08,1.81-10.6,3.62-16.36,2.88a10.62,10.62,0,0,0-4.77.15C2467.13,430.4,2457.9,429.27,2448.26,429.49Z" transform="translate(-43.4 -47.27)"/><path class="cls-6" d="M2891.76,319.07c-1.8,7.4,3.85,11.6,7.2,16.8.08,4.37-.36,8.77,1.48,13a12,12,0,0,1,.83,4.67c.06,16.78,3.06,33.14,6.78,49.42a39.38,39.38,0,0,1,.47,9.54c-.19,8.21-4.61,12.85-12.74,14.63a114.05,114.05,0,0,1-27.26,2.39c-9.59-.21-19.22-.61-28.76.11-10.52.78-20.49-2.59-30.84-2.95-5.1-.17-9.94-3.24-13.85-6.61a108,108,0,0,1-14.34-14.43c-8.15-10.27-15.69-21-23.46-31.57a17.34,17.34,0,0,0-2-2.93c-9.69-8.41-16.5-19.41-25.65-28.34-14.59-14.22-29.2-28.44-43.17-43.27-11.79-12.52-26-22.37-37.71-34.92-2.95-3.15-6.87-5.37-10.29-8.09-8.6-6.85-14.3-16-19.69-25.32-8-13.79-15.34-27.94-23.44-41.65-5.89-10-11-20.33-16.43-30.54a54.82,54.82,0,0,1-6.33-30c.47-7.35,3.5-12.87,10-16.54,8.11-4.56,16.32-8.22,26.05-7.11,4.73.55,9.57.1,14.37.1h0c2.3,3.13,5.71,2.3,8.82,2.38s6.34,0,9,2.37c7.93,7,17.63,10.77,27.26,14.62,13.66,5.46,27.43,10.65,40.51,17.42,14.11,7.3,28.65,13.76,41.67,23.11,7.08,5.08,15.16,8.84,22,14.18,11.28,8.8,22,18.36,32.83,27.69,5.18,4.44,8.71,10.37,13.26,15.32,8.15,8.85,15,18.55,21.57,28.55,10,15.29,19.76,30.77,30.46,45.63A103.52,103.52,0,0,0,2891.76,319.07Z" transform="translate(-43.4 -47.27)"/><path class="cls-6" d="M2721.22,722.27q-56.34,0-112.69,0c-4,0-7.9.35-11.82-1.15-13.08-5-19.32-13.81-19.33-28.43q-.09-79.73,0-159.44c0-6.75.4-13.48-1.85-20.15-1.1-3.25-.67-7.14-.44-10.7a17.91,17.91,0,0,1,9.78-15.42,56.49,56.49,0,0,1,25-7c6-.26,12,.31,18-.14,8-.6,14.78,2.26,21.4,6.24,16.33,9.81,29.46,23,40.37,38.43,1.38,1.95,2.66,4,4.17,5.8,15,18.22,31.77,34.74,48.76,51,12.62,12.09,25.53,23.92,39.16,34.94,6.18,5,11.51,11.07,17.11,16.77s12.31,10.29,17.7,15.94,10.36,12,16,17.69q8.88,8.92,17.8,17.8a28.67,28.67,0,0,1,6.4,8.58c1.2,2.66,1.92,5.42,1.3,8.14-1.74,7.54-5.11,14.3-11.39,19.12a11.54,11.54,0,0,1-5.51,1.9,71.06,71.06,0,0,1-8.39.13Z" transform="translate(-43.4 -47.27)"/><path class="cls-12" d="M2236,862c-.06-8.65,6.14-15.16,14.68-15.44a15.5,15.5,0,0,1,16.34,15.29c.06,8.51-7.72,16.07-16.18,15.71A15.43,15.43,0,0,1,2236,862Z" transform="translate(-43.4 -47.27)"/><path class="cls-13" d="M2387.5,801.82c3.48-4,7.81-3,12.1-2,.66.16,1.62.94,1.68,1.51.67,6.56,3,13.29-1.62,19.41Z" transform="translate(-43.4 -47.27)"/><path class="cls-14" d="M1048.79,422.2A15.41,15.41,0,0,1,1034.26,438a15.85,15.85,0,0,1-16.54-15.19,15.41,15.41,0,0,1,15.92-15.63A15,15,0,0,1,1048.79,422.2Z" transform="translate(-43.4 -47.27)"/><path class="cls-15" d="M2670.91,2368.7c-.13,3.74-2,6.77-4.09,9.65a3.82,3.82,0,0,1-6.13,0c-2.13-2.88-3.93-5.93-4.12-9.65Z" transform="translate(-43.4 -47.27)"/><path class="cls-4" d="M2891.76,319.07a103.52,103.52,0,0,1-21.39-22.33c-10.7-14.86-20.43-30.34-30.46-45.63-6.55-10-13.42-19.7-21.57-28.55-4.55-4.95-8.08-10.88-13.26-15.32-10.86-9.33-21.55-18.89-32.83-27.69-6.86-5.34-14.94-9.1-22-14.18-13-9.35-27.56-15.81-41.67-23.11-13.08-6.77-26.85-12-40.51-17.42-9.63-3.85-19.33-7.61-27.26-14.62-2.67-2.36-5.8-2.3-9-2.37s-6.52.75-8.82-2.38h20.33c2,0,4.18.48,5.95-.16,7.45-2.72,14.63-.93,22.16-.26a117.12,117.12,0,0,1,35.61,9.14c16.84,7.14,32.89,15.94,47.19,27.67,9.5,7.78,19.66,14.76,29.19,22.5a270.7,270.7,0,0,1,23.15,20.55c6.16,6.32,13.89,10.63,19.83,17.13,21.71,23.79,42.89,47.95,57.51,77,3,6,7,11.57,10.37,17.4,3.7,6.3,3,12.95,1,19.51C2894.85,317.25,2893,318.05,2891.76,319.07Z" transform="translate(-43.4 -47.27)"/><path class="cls-16" d="M1958.28,2219.86a19.11,19.11,0,0,1-16-5.2,25.38,25.38,0,0,1-7.67-18.34c.12-8.82,3.66-17.1,11.35-22.74,1.68-1.23,3.62-1.45,5.62-1.71,7.34-1,14.44.79,21.12,3.07,9.89,3.38,14.68,13.74,14.28,22.69-.44,10-5.54,16.92-15.21,20.48C1967.55,2219.68,1963.3,2219.93,1958.28,2219.86Z" transform="translate(-43.4 -47.27)"/><path class="cls-5" d="M688.51,2473.56q-35.35,0-70.7,0c-3.19,0-6.39-.09-9.56-.35a3.29,3.29,0,0,1-3.1-3.07,38,38,0,0,1-.27-4.77q0-40.14,0-80.29c0-1.2,0-2.4.07-3.6.29-3.59,1.38-4.58,5.36-4.85,1.59-.1,3.19-.06,4.79-.07,14.38,0,28.76.13,43.14-.07,5-.06,9.11,1,13,4.56q48,43.41,96.24,86.52a17.88,17.88,0,0,1,2.55,2.52,3.55,3.55,0,0,1,.48,2.15c0,1-.75,1.27-1.71,1.27-3.19,0-6.39.06-9.58.06Z" transform="translate(-43.4 -47.27)"/><path class="cls-5" d="M512.2,2493.87c-2.61,2.44-4.67,1.77-6.53,1.77q-74.81.06-149.61,0c-1.2,0-2.39,0-3.59,0-6.34-.21-6.75-.46-6.77-7-.07-27.53,0-55.06,0-82.59a20.28,20.28,0,0,1,.24-3.57,3.45,3.45,0,0,1,3.2-3,39.74,39.74,0,0,1,4.76-.26c15.56,0,31.12.1,46.68-.08a16.17,16.17,0,0,1,11.86,4.38q47.94,43.33,96.11,86.42C509.7,2491.07,510.71,2492.29,512.2,2493.87Z" transform="translate(-43.4 -47.27)"/><path class="cls-17" d="M614.17,702.07q-1.24,6.43-2.47,12.88c-2.37-1.13-2.91-4.42-5.81-4.92A25.81,25.81,0,0,1,614.17,702.07Z" transform="translate(-43.4 -47.27)"/><path class="cls-5" d="M1833.78,1311c3,6,1.61,12.54,2,18.85.28,4,.81,4.75,5,4.79,12,.1,24,0,36,.11,3.94,0,5.09,1.18,5.29,4.82.15,2.79.1,5.6.1,8.4v236.39c0,14.2.9,13.22-12.73,13.22H1603.13c-12.78,0-12,.49-12-11.48v-240c0-2-.05-4,0-6,.22-4.53.94-5.31,5.93-5.36,9.6-.12,19.2,0,28.8-.07,5.19,0,10.38-.24,15.58-.37l24.1,0c3.18.14,6.36.41,9.54.41q63.35,0,126.67,0c3.18,0,6.36-.28,9.54-.43,5.91,0,11.82.08,17.73,0a4.16,4.16,0,0,0,4.47-4.42C1833.72,1323.53,1833.71,1317.25,1833.78,1311Zm-82.09,153.76h-.08c0-4.37.25-8.77-.09-13.12a27,27,0,0,0-2.15-8,6.28,6.28,0,0,0-3.25-3.17c-9.51-3.38-17.68,1.82-18.73,11.83-.49,4.74-.76,9.51-1.17,14.27-.66,7.63-2.48,14.37-8.2,20.45-7.26,7.71-6.75,18.87-.51,27.49a28.44,28.44,0,0,0,14.13,10.55c9.31,3.12,18.15,2.65,25.37-4.88s8.89-16.54,5-26.44c-1.49-3.74-3.23-7.47-6.17-10.1-4.11-3.66-4.77-7.94-4.15-12.94A49.33,49.33,0,0,0,1751.69,1464.73Z" transform="translate(-43.4 -47.27)"/><path d="M1665.61,1334.24l-24.1,0c-.55-19,2.32-37.43,9.55-55.07,6.92-16.9,17-31.58,31.08-43.4A88.47,88.47,0,0,1,1731,1215c17.2-1.76,33.31,2.23,48.45,10.39a94.41,94.41,0,0,1,31.38,27.34c12.85,17.34,21.12,36.56,23,58.27-.06,6.29,0,12.57-.21,18.85a4.16,4.16,0,0,1-4.47,4.42c-5.91.07-11.82,0-17.73,0a103.84,103.84,0,0,0-2-26.15c-4.49-22.65-14.6-42.08-33.26-56.28-23.12-17.57-52.14-17.46-75.36,0a83.25,83.25,0,0,0-25.67,32.48A106.89,106.89,0,0,0,1665.61,1334.24Z" transform="translate(-43.4 -47.27)"/></g></g></svg>